<?xml version="1.0" encoding="UTF-8" standalone="no"?>
<!DOCTYPE svg PUBLIC "-//W3C//DTD SVG 1.1//EN" "http://www.w3.org/Graphics/SVG/1.1/DTD/svg11.dtd">
<svg width="100%" height="100%" viewBox="0 0 2835 2835" version="1.1" xmlns="http://www.w3.org/2000/svg" xmlns:xlink="http://www.w3.org/1999/xlink" xml:space="preserve" xmlns:serif="http://www.serif.com/" style="fill-rule:evenodd;clip-rule:evenodd;stroke-linejoin:round;stroke-miterlimit:2;">
    <rect x="0" y="0" width="2834.65" height="2834.65" style="fill:rgb(0,162,122);"/>
    <g transform="matrix(0.81228,0,0,0.81228,874.259,1417.32)">
        <g transform="matrix(1588,0,0,1588,0,1133.83)">
            <path d="M0.585,-0.081L0.601,-0L0.701,-0L0.701,-0.386L0.401,-0.386L0.401,-0.269L0.559,-0.269C0.554,-0.219 0.538,-0.181 0.51,-0.155C0.481,-0.128 0.441,-0.115 0.389,-0.115C0.354,-0.115 0.324,-0.122 0.299,-0.136C0.274,-0.149 0.254,-0.167 0.239,-0.19C0.224,-0.213 0.213,-0.238 0.206,-0.267C0.199,-0.295 0.195,-0.324 0.195,-0.354C0.195,-0.385 0.199,-0.416 0.206,-0.445C0.213,-0.474 0.224,-0.501 0.239,-0.524C0.254,-0.547 0.274,-0.565 0.299,-0.579C0.324,-0.592 0.354,-0.599 0.389,-0.599C0.427,-0.599 0.459,-0.589 0.486,-0.569C0.513,-0.549 0.531,-0.519 0.54,-0.479L0.69,-0.479C0.686,-0.52 0.675,-0.556 0.657,-0.587C0.639,-0.618 0.616,-0.645 0.589,-0.666C0.561,-0.687 0.53,-0.704 0.496,-0.715C0.461,-0.725 0.426,-0.731 0.389,-0.731C0.334,-0.731 0.285,-0.721 0.242,-0.702C0.198,-0.683 0.161,-0.656 0.131,-0.622C0.101,-0.588 0.078,-0.548 0.062,-0.503C0.046,-0.457 0.038,-0.407 0.038,-0.354C0.038,-0.302 0.046,-0.254 0.062,-0.209C0.078,-0.164 0.101,-0.124 0.131,-0.091C0.161,-0.058 0.198,-0.032 0.242,-0.013C0.285,0.007 0.334,0.016 0.389,0.016C0.424,0.016 0.458,0.009 0.492,-0.006C0.526,-0.02 0.557,-0.045 0.585,-0.081Z" style="fill:white;fill-rule:nonzero;"/>
        </g>
        <g transform="matrix(1588,0,0,1588,1157.65,1133.83)">
            <path d="M0.539,-0L0.539,-0.517L0.397,-0.517L0.397,-0.246C0.397,-0.193 0.388,-0.156 0.371,-0.133C0.354,-0.11 0.326,-0.098 0.287,-0.098C0.253,-0.098 0.229,-0.109 0.216,-0.13C0.203,-0.151 0.196,-0.182 0.196,-0.225L0.196,-0.517L0.054,-0.517L0.054,-0.199C0.054,-0.167 0.057,-0.138 0.063,-0.112C0.068,-0.085 0.078,-0.063 0.092,-0.045C0.106,-0.026 0.125,-0.012 0.15,-0.002C0.174,0.008 0.205,0.013 0.243,0.013C0.273,0.013 0.302,0.006 0.331,-0.007C0.36,-0.02 0.383,-0.042 0.401,-0.072L0.404,-0.072L0.404,-0L0.539,-0Z" style="fill:white;fill-rule:nonzero;"/>
        </g>
    </g>
</svg>
