<?xml version="1.0" encoding="UTF-8" standalone="no"?>
<!DOCTYPE svg PUBLIC "-//W3C//DTD SVG 1.1//EN" "http://www.w3.org/Graphics/SVG/1.1/DTD/svg11.dtd">
<svg width="100%" height="100%" viewBox="0 0 24 24" version="1.1" xmlns="http://www.w3.org/2000/svg" xmlns:xlink="http://www.w3.org/1999/xlink" xml:space="preserve" xmlns:serif="http://www.serif.com/" style="fill-rule:evenodd;clip-rule:evenodd;stroke-linejoin:round;stroke-miterlimit:2;">
    <g transform="matrix(0.666667,0,0,0.666667,4,4)">
        <g transform="matrix(1.5,0,0,1.5,-6,-6)">
            <rect x="0" y="0" width="24" height="24" style="fill:rgb(64,64,64);"/>
        </g>
        <g transform="matrix(0.9,0,0,0.9,1.2,1.2)">
            <path d="M12,2C6.48,2 2,6.48 2,12C2,17.52 6.48,22 12,22C17.52,22 22,17.52 22,12C22,6.48 17.52,2 12,2ZM13,17L11,17L11,11L13,11L13,17ZM13,9L11,9L11,7L13,7L13,9Z" style="fill:white;fill-rule:nonzero;"/>
        </g>
        <rect x="0" y="0" width="24" height="24" style="fill:none;"/>
        <circle cx="12" cy="3.5" r="0.75" style="fill:none;"/>
        <circle cx="12" cy="3.5" r="0.75" style="fill:none;"/>
        <path d="M5,5L5,19L19,19L19,5L5,5Z" style="fill:none;fill-rule:nonzero;"/>
    </g>
</svg>
