<?xml version="1.0" encoding="UTF-8" standalone="no"?>
<!DOCTYPE svg PUBLIC "-//W3C//DTD SVG 1.1//EN" "http://www.w3.org/Graphics/SVG/1.1/DTD/svg11.dtd">
<svg width="100%" height="100%" viewBox="0 0 6116 1109" version="1.1" xmlns="http://www.w3.org/2000/svg" xmlns:xlink="http://www.w3.org/1999/xlink" xml:space="preserve" xmlns:serif="http://www.serif.com/" style="fill-rule:evenodd;clip-rule:evenodd;stroke-linejoin:round;stroke-miterlimit:2;">
    <g id="Artboard1" transform="matrix(0.922884,0,0,1.2365,-2357.05,-3460.72)">
        <rect x="2554" y="2798.8" width="6626.4" height="896.4" style="fill:none;"/>
        <clipPath id="_clip1">
            <rect x="2554" y="2798.8" width="6626.4" height="896.4"/>
        </clipPath>
        <g clip-path="url(#_clip1)">
            <g transform="matrix(1.08356,0,0,0.808733,-1855.61,134.544)">
                <g transform="matrix(1200,0,0,1200,4023.96,4172.36)">
                    <path d="M0.295,-0.122C0.273,-0.122 0.255,-0.127 0.24,-0.136C0.225,-0.145 0.214,-0.157 0.205,-0.172C0.196,-0.187 0.189,-0.203 0.186,-0.222C0.182,-0.24 0.18,-0.258 0.18,-0.277C0.18,-0.296 0.182,-0.315 0.187,-0.333C0.191,-0.35 0.198,-0.366 0.208,-0.38C0.217,-0.393 0.229,-0.404 0.244,-0.412C0.258,-0.42 0.275,-0.424 0.295,-0.424C0.318,-0.424 0.338,-0.42 0.353,-0.411C0.368,-0.402 0.381,-0.391 0.39,-0.376C0.399,-0.361 0.406,-0.345 0.41,-0.326C0.414,-0.307 0.416,-0.286 0.416,-0.265C0.416,-0.246 0.414,-0.229 0.409,-0.212C0.404,-0.195 0.396,-0.179 0.386,-0.166C0.376,-0.153 0.363,-0.142 0.348,-0.134C0.333,-0.126 0.315,-0.122 0.295,-0.122ZM0.551,-0.033L0.551,-0.517L0.416,-0.517L0.416,-0.448L0.414,-0.448C0.397,-0.478 0.375,-0.499 0.35,-0.512C0.324,-0.525 0.294,-0.531 0.26,-0.531C0.224,-0.531 0.192,-0.524 0.165,-0.51C0.137,-0.496 0.114,-0.477 0.095,-0.454C0.076,-0.43 0.062,-0.403 0.053,-0.372C0.043,-0.341 0.038,-0.308 0.038,-0.275C0.038,-0.24 0.042,-0.206 0.051,-0.175C0.059,-0.143 0.072,-0.115 0.09,-0.092C0.108,-0.068 0.131,-0.049 0.159,-0.036C0.187,-0.022 0.22,-0.015 0.259,-0.015C0.29,-0.015 0.32,-0.022 0.349,-0.035C0.377,-0.048 0.399,-0.068 0.414,-0.095L0.416,-0.095L0.416,-0.027C0.417,0.01 0.408,0.04 0.39,0.064C0.371,0.088 0.342,0.1 0.302,0.1C0.277,0.1 0.254,0.095 0.235,0.085C0.216,0.074 0.203,0.056 0.196,0.029L0.055,0.029C0.057,0.058 0.065,0.084 0.08,0.105C0.094,0.126 0.112,0.143 0.134,0.156C0.155,0.169 0.179,0.179 0.206,0.186C0.232,0.192 0.258,0.195 0.283,0.195C0.342,0.195 0.39,0.187 0.425,0.171C0.46,0.155 0.487,0.135 0.506,0.113C0.525,0.09 0.537,0.065 0.543,0.038C0.548,0.011 0.551,-0.012 0.551,-0.033Z" style="fill:rgb(235,235,235);fill-rule:nonzero;"/>
                </g>
                <g transform="matrix(1200,0,0,1200,4721.16,4172.36)">
                    <path d="M0.2,-0.597L0.2,-0.714L0.058,-0.714L0.058,-0.597L0.2,-0.597ZM0.058,-0.517L0.058,-0L0.2,-0L0.2,-0.517L0.058,-0.517Z" style="fill:rgb(235,235,235);fill-rule:nonzero;"/>
                </g>
                <g transform="matrix(1200,0,0,1200,4994.76,4172.36)">
                    <path d="M0.234,-0.517L0.234,-0.672L0.092,-0.672L0.092,-0.517L0.006,-0.517L0.006,-0.422L0.092,-0.422L0.092,-0.117C0.092,-0.091 0.096,-0.07 0.105,-0.054C0.114,-0.038 0.126,-0.026 0.141,-0.017C0.156,-0.008 0.173,-0.003 0.193,0.001C0.212,0.004 0.233,0.005 0.255,0.005C0.269,0.005 0.283,0.005 0.298,0.004C0.313,0.003 0.326,0.002 0.338,-0L0.338,-0.11C0.331,-0.109 0.324,-0.108 0.317,-0.107C0.31,-0.106 0.302,-0.106 0.294,-0.106C0.27,-0.106 0.254,-0.11 0.246,-0.118C0.238,-0.126 0.234,-0.142 0.234,-0.166L0.234,-0.422L0.338,-0.422L0.338,-0.517L0.234,-0.517Z" style="fill:rgb(235,235,235);fill-rule:nonzero;"/>
                </g>
                <g transform="matrix(1200,0,0,1200,5381.16,4172.36)">
                    <path d="M0.054,-0.714L0.054,-0L0.196,-0L0.196,-0.271C0.196,-0.324 0.205,-0.362 0.222,-0.385C0.239,-0.407 0.267,-0.419 0.306,-0.419C0.34,-0.419 0.364,-0.409 0.377,-0.388C0.39,-0.367 0.397,-0.335 0.397,-0.292L0.397,-0L0.539,-0L0.539,-0.318C0.539,-0.35 0.536,-0.379 0.531,-0.406C0.525,-0.432 0.515,-0.454 0.501,-0.473C0.487,-0.491 0.468,-0.505 0.444,-0.516C0.419,-0.526 0.388,-0.531 0.35,-0.531C0.323,-0.531 0.296,-0.524 0.268,-0.511C0.24,-0.497 0.217,-0.475 0.199,-0.445L0.196,-0.445L0.196,-0.714L0.054,-0.714Z" style="fill:rgb(235,235,235);fill-rule:nonzero;"/>
                </g>
                <g transform="matrix(1200,0,0,1200,6056.76,4172.36)">
                    <path d="M0.539,-0L0.539,-0.517L0.397,-0.517L0.397,-0.246C0.397,-0.193 0.388,-0.156 0.371,-0.133C0.354,-0.11 0.326,-0.098 0.287,-0.098C0.253,-0.098 0.229,-0.109 0.216,-0.13C0.203,-0.151 0.196,-0.182 0.196,-0.225L0.196,-0.517L0.054,-0.517L0.054,-0.199C0.054,-0.167 0.057,-0.138 0.063,-0.112C0.068,-0.085 0.078,-0.063 0.092,-0.045C0.106,-0.026 0.125,-0.012 0.15,-0.002C0.174,0.008 0.205,0.013 0.243,0.013C0.273,0.013 0.302,0.006 0.331,-0.007C0.36,-0.02 0.383,-0.042 0.401,-0.072L0.404,-0.072L0.404,-0L0.539,-0Z" style="fill:rgb(235,235,235);fill-rule:nonzero;"/>
                </g>
                <g transform="matrix(1200,0,0,1200,6732.36,4172.36)">
                    <path d="M0.433,-0.258C0.433,-0.237 0.431,-0.216 0.426,-0.196C0.421,-0.176 0.414,-0.158 0.404,-0.143C0.394,-0.128 0.382,-0.115 0.367,-0.107C0.352,-0.097 0.333,-0.093 0.312,-0.093C0.291,-0.093 0.273,-0.097 0.258,-0.107C0.243,-0.115 0.23,-0.128 0.22,-0.143C0.21,-0.158 0.203,-0.176 0.198,-0.196C0.193,-0.216 0.191,-0.237 0.191,-0.258C0.191,-0.28 0.193,-0.301 0.198,-0.321C0.203,-0.341 0.21,-0.359 0.22,-0.374C0.23,-0.389 0.243,-0.402 0.258,-0.411C0.273,-0.42 0.291,-0.424 0.312,-0.424C0.333,-0.424 0.352,-0.42 0.367,-0.411C0.382,-0.402 0.394,-0.389 0.404,-0.374C0.414,-0.359 0.421,-0.341 0.426,-0.321C0.431,-0.301 0.433,-0.28 0.433,-0.258ZM0.054,-0.714L0.054,-0L0.189,-0L0.189,-0.066L0.191,-0.066C0.206,-0.037 0.229,-0.017 0.259,-0.005C0.289,0.007 0.323,0.013 0.361,0.013C0.387,0.013 0.413,0.008 0.438,-0.003C0.463,-0.014 0.486,-0.03 0.507,-0.052C0.527,-0.074 0.543,-0.102 0.556,-0.137C0.569,-0.171 0.575,-0.212 0.575,-0.259C0.575,-0.306 0.569,-0.347 0.556,-0.382C0.543,-0.416 0.527,-0.444 0.507,-0.466C0.486,-0.488 0.463,-0.504 0.438,-0.515C0.413,-0.526 0.387,-0.531 0.361,-0.531C0.329,-0.531 0.298,-0.525 0.269,-0.513C0.239,-0.5 0.215,-0.481 0.198,-0.454L0.196,-0.454L0.196,-0.714L0.054,-0.714Z" style="fill:rgb(235,235,235);fill-rule:nonzero;"/>
                </g>
                <g transform="matrix(1200,0,0,1200,7429.56,4172.36)">
                    <rect x="0.053" y="-0.334" width="0.301" height="0.122" style="fill:rgb(235,235,235);fill-rule:nonzero;"/>
                </g>
                <g transform="matrix(1200,0,0,1200,7881.96,4172.36)">
                    <path d="M0.539,-0L0.539,-0.517L0.397,-0.517L0.397,-0.246C0.397,-0.193 0.388,-0.156 0.371,-0.133C0.354,-0.11 0.326,-0.098 0.287,-0.098C0.253,-0.098 0.229,-0.109 0.216,-0.13C0.203,-0.151 0.196,-0.182 0.196,-0.225L0.196,-0.517L0.054,-0.517L0.054,-0.199C0.054,-0.167 0.057,-0.138 0.063,-0.112C0.068,-0.085 0.078,-0.063 0.092,-0.045C0.106,-0.026 0.125,-0.012 0.15,-0.002C0.174,0.008 0.205,0.013 0.243,0.013C0.273,0.013 0.302,0.006 0.331,-0.007C0.36,-0.02 0.383,-0.042 0.401,-0.072L0.404,-0.072L0.404,-0L0.539,-0Z" style="fill:rgb(235,235,235);fill-rule:nonzero;"/>
                </g>
                <g transform="matrix(1200,0,0,1200,8557.56,4172.36)">
                    <path d="M0.2,-0.597L0.2,-0.714L0.058,-0.714L0.058,-0.597L0.2,-0.597ZM0.058,-0.517L0.058,-0L0.2,-0L0.2,-0.517L0.058,-0.517Z" style="fill:rgb(235,235,235);fill-rule:nonzero;"/>
                </g>
                <g transform="matrix(1200,0,0,1200,8831.16,4172.36)">
                    <path d="M0.067,-0.714L0.067,-0L0.209,-0L0.209,-0.178L0.264,-0.231L0.406,-0L0.578,-0L0.361,-0.327L0.556,-0.517L0.388,-0.517L0.209,-0.331L0.209,-0.714L0.067,-0.714Z" style="fill:rgb(235,235,235);fill-rule:nonzero;"/>
                </g>
                <g transform="matrix(1200,0,0,1200,9483.96,4172.36)">
                    <path d="M0.2,-0.597L0.2,-0.714L0.058,-0.714L0.058,-0.597L0.2,-0.597ZM0.058,-0.517L0.058,-0L0.2,-0L0.2,-0.517L0.058,-0.517Z" style="fill:rgb(235,235,235);fill-rule:nonzero;"/>
                </g>
                <g transform="matrix(1200,0,0,1200,9757.56,4172.36)">
                    <path d="M0.234,-0.517L0.234,-0.672L0.092,-0.672L0.092,-0.517L0.006,-0.517L0.006,-0.422L0.092,-0.422L0.092,-0.117C0.092,-0.091 0.096,-0.07 0.105,-0.054C0.114,-0.038 0.126,-0.026 0.141,-0.017C0.156,-0.008 0.173,-0.003 0.193,0.001C0.212,0.004 0.233,0.005 0.255,0.005C0.269,0.005 0.283,0.005 0.298,0.004C0.313,0.003 0.326,0.002 0.338,-0L0.338,-0.11C0.331,-0.109 0.324,-0.108 0.317,-0.107C0.31,-0.106 0.302,-0.106 0.294,-0.106C0.27,-0.106 0.254,-0.11 0.246,-0.118C0.238,-0.126 0.234,-0.142 0.234,-0.166L0.234,-0.422L0.338,-0.422L0.338,-0.517L0.234,-0.517Z" style="fill:rgb(235,235,235);fill-rule:nonzero;"/>
                </g>
            </g>
        </g>
    </g>
</svg>
