<?xml version="1.0" encoding="UTF-8" standalone="no"?>
<!DOCTYPE svg PUBLIC "-//W3C//DTD SVG 1.1//EN" "http://www.w3.org/Graphics/SVG/1.1/DTD/svg11.dtd">
<svg width="100%" height="100%" viewBox="0 0 6627 897" version="1.1" xmlns="http://www.w3.org/2000/svg" xmlns:xlink="http://www.w3.org/1999/xlink" xml:space="preserve" xmlns:serif="http://www.serif.com/" style="fill-rule:evenodd;clip-rule:evenodd;stroke-linejoin:round;stroke-miterlimit:2;">
    <g id="Artboard1" transform="matrix(1,0,0,1,-2554,-2798.8)">
        <rect x="2554" y="2798.8" width="6626.4" height="896.4" style="fill:none;"/>
        <clipPath id="_clip1">
            <rect x="2554" y="2798.8" width="6626.4" height="896.4"/>
        </clipPath>
        <g clip-path="url(#_clip1)">
            <g transform="matrix(1,0,0,1,-1515.56,-495.557)">
                <g transform="matrix(1200,0,0,1200,4023.96,4172.36)">
                    <path d="M0.585,-0.081L0.601,-0L0.701,-0L0.701,-0.386L0.401,-0.386L0.401,-0.269L0.559,-0.269C0.554,-0.219 0.538,-0.181 0.51,-0.155C0.481,-0.128 0.441,-0.115 0.389,-0.115C0.354,-0.115 0.324,-0.122 0.299,-0.136C0.274,-0.149 0.254,-0.167 0.239,-0.19C0.224,-0.213 0.213,-0.238 0.206,-0.267C0.199,-0.295 0.195,-0.324 0.195,-0.354C0.195,-0.385 0.199,-0.416 0.206,-0.445C0.213,-0.474 0.224,-0.501 0.239,-0.524C0.254,-0.547 0.274,-0.565 0.299,-0.579C0.324,-0.592 0.354,-0.599 0.389,-0.599C0.427,-0.599 0.459,-0.589 0.486,-0.569C0.513,-0.549 0.531,-0.519 0.54,-0.479L0.69,-0.479C0.686,-0.52 0.675,-0.556 0.657,-0.587C0.639,-0.618 0.616,-0.645 0.589,-0.666C0.561,-0.687 0.53,-0.704 0.496,-0.715C0.461,-0.725 0.426,-0.731 0.389,-0.731C0.334,-0.731 0.285,-0.721 0.242,-0.702C0.198,-0.683 0.161,-0.656 0.131,-0.622C0.101,-0.588 0.078,-0.548 0.062,-0.503C0.046,-0.457 0.038,-0.407 0.038,-0.354C0.038,-0.302 0.046,-0.254 0.062,-0.209C0.078,-0.164 0.101,-0.124 0.131,-0.091C0.161,-0.058 0.198,-0.032 0.242,-0.013C0.285,0.007 0.334,0.016 0.389,0.016C0.424,0.016 0.458,0.009 0.492,-0.006C0.526,-0.02 0.557,-0.045 0.585,-0.081Z" style="fill-rule:nonzero;"/>
                </g>
                <g transform="matrix(1200,0,0,1200,4898.76,4172.36)">
                    <path d="M0.2,-0.597L0.2,-0.714L0.058,-0.714L0.058,-0.597L0.2,-0.597ZM0.058,-0.517L0.058,-0L0.2,-0L0.2,-0.517L0.058,-0.517Z" style="fill-rule:nonzero;"/>
                </g>
                <g transform="matrix(1200,0,0,1200,5172.36,4172.36)">
                    <path d="M0.234,-0.517L0.234,-0.672L0.092,-0.672L0.092,-0.517L0.006,-0.517L0.006,-0.422L0.092,-0.422L0.092,-0.117C0.092,-0.091 0.096,-0.07 0.105,-0.054C0.114,-0.038 0.126,-0.026 0.141,-0.017C0.156,-0.008 0.173,-0.003 0.193,0.001C0.212,0.004 0.233,0.005 0.255,0.005C0.269,0.005 0.283,0.005 0.298,0.004C0.313,0.003 0.326,0.002 0.338,-0L0.338,-0.11C0.331,-0.109 0.324,-0.108 0.317,-0.107C0.31,-0.106 0.302,-0.106 0.294,-0.106C0.27,-0.106 0.254,-0.11 0.246,-0.118C0.238,-0.126 0.234,-0.142 0.234,-0.166L0.234,-0.422L0.338,-0.422L0.338,-0.517L0.234,-0.517Z" style="fill-rule:nonzero;"/>
                </g>
                <g transform="matrix(1200,0,0,1200,5558.76,4172.36)">
                    <path d="M0.054,-0.714L0.054,-0L0.196,-0L0.196,-0.271C0.196,-0.324 0.205,-0.362 0.222,-0.385C0.239,-0.407 0.267,-0.419 0.306,-0.419C0.34,-0.419 0.364,-0.409 0.377,-0.388C0.39,-0.367 0.397,-0.335 0.397,-0.292L0.397,-0L0.539,-0L0.539,-0.318C0.539,-0.35 0.536,-0.379 0.531,-0.406C0.525,-0.432 0.515,-0.454 0.501,-0.473C0.487,-0.491 0.468,-0.505 0.444,-0.516C0.419,-0.526 0.388,-0.531 0.35,-0.531C0.323,-0.531 0.296,-0.524 0.268,-0.511C0.24,-0.497 0.217,-0.475 0.199,-0.445L0.196,-0.445L0.196,-0.714L0.054,-0.714Z" style="fill-rule:nonzero;"/>
                </g>
                <g transform="matrix(1200,0,0,1200,6234.36,4172.36)">
                    <path d="M0.539,-0L0.539,-0.517L0.397,-0.517L0.397,-0.246C0.397,-0.193 0.388,-0.156 0.371,-0.133C0.354,-0.11 0.326,-0.098 0.287,-0.098C0.253,-0.098 0.229,-0.109 0.216,-0.13C0.203,-0.151 0.196,-0.182 0.196,-0.225L0.196,-0.517L0.054,-0.517L0.054,-0.199C0.054,-0.167 0.057,-0.138 0.063,-0.112C0.068,-0.085 0.078,-0.063 0.092,-0.045C0.106,-0.026 0.125,-0.012 0.15,-0.002C0.174,0.008 0.205,0.013 0.243,0.013C0.273,0.013 0.302,0.006 0.331,-0.007C0.36,-0.02 0.383,-0.042 0.401,-0.072L0.404,-0.072L0.404,-0L0.539,-0Z" style="fill-rule:nonzero;"/>
                </g>
                <g transform="matrix(1200,0,0,1200,6909.96,4172.36)">
                    <path d="M0.433,-0.258C0.433,-0.237 0.431,-0.216 0.426,-0.196C0.421,-0.176 0.414,-0.158 0.404,-0.143C0.394,-0.128 0.382,-0.115 0.367,-0.107C0.352,-0.097 0.333,-0.093 0.312,-0.093C0.291,-0.093 0.273,-0.097 0.258,-0.107C0.243,-0.115 0.23,-0.128 0.22,-0.143C0.21,-0.158 0.203,-0.176 0.198,-0.196C0.193,-0.216 0.191,-0.237 0.191,-0.258C0.191,-0.28 0.193,-0.301 0.198,-0.321C0.203,-0.341 0.21,-0.359 0.22,-0.374C0.23,-0.389 0.243,-0.402 0.258,-0.411C0.273,-0.42 0.291,-0.424 0.312,-0.424C0.333,-0.424 0.352,-0.42 0.367,-0.411C0.382,-0.402 0.394,-0.389 0.404,-0.374C0.414,-0.359 0.421,-0.341 0.426,-0.321C0.431,-0.301 0.433,-0.28 0.433,-0.258ZM0.054,-0.714L0.054,-0L0.189,-0L0.189,-0.066L0.191,-0.066C0.206,-0.037 0.229,-0.017 0.259,-0.005C0.289,0.007 0.323,0.013 0.361,0.013C0.387,0.013 0.413,0.008 0.438,-0.003C0.463,-0.014 0.486,-0.03 0.507,-0.052C0.527,-0.074 0.543,-0.102 0.556,-0.137C0.569,-0.171 0.575,-0.212 0.575,-0.259C0.575,-0.306 0.569,-0.347 0.556,-0.382C0.543,-0.416 0.527,-0.444 0.507,-0.466C0.486,-0.488 0.463,-0.504 0.438,-0.515C0.413,-0.526 0.387,-0.531 0.361,-0.531C0.329,-0.531 0.298,-0.525 0.269,-0.513C0.239,-0.5 0.215,-0.481 0.198,-0.454L0.196,-0.454L0.196,-0.714L0.054,-0.714Z" style="fill-rule:nonzero;"/>
                </g>
                <g transform="matrix(1200,0,0,1200,7607.16,4172.36)">
                    <rect x="0.053" y="-0.334" width="0.301" height="0.122" style="fill-rule:nonzero;"/>
                </g>
                <g transform="matrix(1200,0,0,1200,8059.56,4172.36)">
                    <path d="M0.675,-0.27L0.675,-0.714L0.518,-0.714L0.518,-0.27C0.518,-0.217 0.507,-0.178 0.486,-0.153C0.465,-0.128 0.426,-0.115 0.37,-0.115C0.338,-0.115 0.313,-0.12 0.294,-0.129C0.275,-0.138 0.26,-0.149 0.249,-0.164C0.238,-0.178 0.231,-0.194 0.228,-0.213C0.225,-0.232 0.223,-0.251 0.223,-0.27L0.223,-0.714L0.066,-0.714L0.066,-0.27C0.066,-0.173 0.092,-0.101 0.146,-0.054C0.199,-0.007 0.273,0.016 0.37,0.016C0.465,0.016 0.54,-0.008 0.594,-0.055C0.648,-0.101 0.675,-0.173 0.675,-0.27Z" style="fill-rule:nonzero;"/>
                </g>
                <g transform="matrix(1200,0,0,1200,8912.76,4172.36)">
                    <path d="M0.2,-0.597L0.2,-0.714L0.058,-0.714L0.058,-0.597L0.2,-0.597ZM0.058,-0.517L0.058,-0L0.2,-0L0.2,-0.517L0.058,-0.517Z" style="fill-rule:nonzero;"/>
                </g>
                <g transform="matrix(1200,0,0,1200,9186.36,4172.36)">
                    <path d="M0.069,-0.714L0.069,-0L0.226,-0L0.226,-0.23L0.316,-0.321L0.531,-0L0.728,-0L0.422,-0.432L0.701,-0.714L0.505,-0.714L0.226,-0.418L0.226,-0.714L0.069,-0.714Z" style="fill-rule:nonzero;"/>
                </g>
                <g transform="matrix(1200,0,0,1200,10016.8,4172.36)">
                    <path d="M0.2,-0.597L0.2,-0.714L0.058,-0.714L0.058,-0.597L0.2,-0.597ZM0.058,-0.517L0.058,-0L0.2,-0L0.2,-0.517L0.058,-0.517Z" style="fill-rule:nonzero;"/>
                </g>
                <g transform="matrix(1200,0,0,1200,10290.4,4172.36)">
                    <path d="M0.234,-0.517L0.234,-0.672L0.092,-0.672L0.092,-0.517L0.006,-0.517L0.006,-0.422L0.092,-0.422L0.092,-0.117C0.092,-0.091 0.096,-0.07 0.105,-0.054C0.114,-0.038 0.126,-0.026 0.141,-0.017C0.156,-0.008 0.173,-0.003 0.193,0.001C0.212,0.004 0.233,0.005 0.255,0.005C0.269,0.005 0.283,0.005 0.298,0.004C0.313,0.003 0.326,0.002 0.338,-0L0.338,-0.11C0.331,-0.109 0.324,-0.108 0.317,-0.107C0.31,-0.106 0.302,-0.106 0.294,-0.106C0.27,-0.106 0.254,-0.11 0.246,-0.118C0.238,-0.126 0.234,-0.142 0.234,-0.166L0.234,-0.422L0.338,-0.422L0.338,-0.517L0.234,-0.517Z" style="fill-rule:nonzero;"/>
                </g>
            </g>
        </g>
    </g>
</svg>
