<?xml version="1.0" encoding="UTF-8" standalone="no"?><!DOCTYPE svg PUBLIC "-//W3C//DTD SVG 1.1//EN" "http://www.w3.org/Graphics/SVG/1.1/DTD/svg11.dtd"><svg width="100%" height="100%" viewBox="0 0 8334 8334" version="1.1" xmlns="http://www.w3.org/2000/svg" xmlns:xlink="http://www.w3.org/1999/xlink" xml:space="preserve" xmlns:serif="http://www.serif.com/" style="fill-rule:evenodd;clip-rule:evenodd;stroke-miterlimit:2;"><g><path d="M2753.57,7139.47l631.265,-710.493c293.194,244.952 582.841,399.527 868.939,463.724c286.099,64.197 606.019,32.362 959.759,-95.505c353.741,-127.868 687.288,-339.873 1000.64,-636.015c278.258,-262.975 484.836,-536.514 619.735,-820.616c134.899,-284.102 186.252,-547.385 154.059,-789.847c-32.192,-242.461 -128.839,-448.925 -289.941,-619.389c-163.47,-172.971 -356.348,-276.625 -578.632,-310.96c-222.284,-34.336 -490.2,13.607 -803.748,143.829c-202.393,82.122 -614.231,301.676 -1235.51,658.662c-621.283,356.985 -1084.39,577.531 -1389.31,661.638c-393.52,110.885 -751.373,125.179 -1073.56,42.883c-322.186,-82.295 -602.921,-250.038 -842.205,-503.228c-262.974,-278.257 -429.808,-612.969 -500.5,-1004.13c-70.692,-391.164 -13.603,-792.751 171.266,-1204.76c184.869,-412.008 462.808,-793.328 833.819,-1143.96c408.613,-386.17 831.159,-660.93 1267.64,-824.28c436.48,-163.349 859.525,-196.542 1269.13,-99.578c409.61,96.964 773.492,301.213 1091.64,612.748l-649.653,713.634c-366.913,-312.912 -742.894,-455.895 -1127.94,-428.949c-385.05,26.946 -789.401,240.612 -1213.06,640.997c-441.202,416.969 -686.298,801.656 -735.288,1154.06c-48.99,352.406 34.311,642.67 249.903,870.791c187.162,198.039 412.601,293.463 676.317,286.27c261.208,-4.824 751.619,-220.329 1471.23,-646.516c719.614,-426.187 1237.1,-693.386 1552.47,-801.597c460.653,-155.348 874.642,-191.846 1241.96,-109.496c367.324,82.35 690.765,271.428 970.324,567.234c277.19,293.299 454.409,649.043 531.658,1067.23c77.248,418.189 26.682,848.019 -151.699,1289.49c-178.381,441.469 -464.358,848.182 -857.93,1220.14c-498.858,471.46 -985.577,793.816 -1460.16,967.069c-474.578,173.254 -945.756,204.478 -1413.53,93.672c-467.778,-110.806 -880.812,-345.723 -1239.1,-704.75Z" style="fill:none;fill-rule:nonzero;stroke:#fff;stroke-width:75px;"/><path d="M4757.63,359.192l-443.168,840.772c-343.24,-167.782 -661.435,-248.654 -954.586,-242.615c-293.151,6.04 -596.191,113.411 -909.121,322.114c-312.93,208.704 -586.143,494.281 -819.64,856.731c-207.345,321.856 -342.563,636.839 -405.654,944.948c-63.09,308.109 -50.033,576.035 39.174,803.777c89.206,227.742 232.396,405.124 429.569,532.146c200.072,128.89 412.133,183.443 636.181,163.66c224.049,-19.784 472.743,-130.368 746.082,-331.752c176.902,-128.113 524.333,-439.732 1042.29,-934.855c517.961,-495.123 914.936,-819.957 1190.92,-974.502c355.615,-201.72 699.682,-301.124 1032.2,-298.214c332.518,2.91 645.207,98.698 938.067,287.363c321.856,207.345 563.849,492.485 725.978,855.419c162.13,362.934 202.672,766.527 121.627,1210.78c-81.044,444.251 -259.796,880.947 -536.256,1310.09c-304.48,472.635 -649.116,840.419 -1033.91,1103.35c-384.792,262.932 -787.645,396.268 -1208.56,400.008c-420.914,3.74 -823.065,-107.625 -1206.45,-334.095l460.273,-848.217c431.064,216.154 830.322,265.137 1197.77,146.947c367.451,-118.19 709.021,-422.301 1024.71,-912.334c328.763,-510.33 474.818,-942.446 438.166,-1296.35c-36.653,-353.903 -186.911,-615.846 -450.775,-785.832c-229.069,-147.57 -470.78,-186.349 -725.134,-116.339c-252.486,67.112 -677.182,393.577 -1274.09,979.397c-596.904,585.819 -1035.54,968.952 -1315.9,1149.4c-410.177,260.939 -803.446,395.32 -1179.81,403.145c-376.36,7.824 -735.617,-98.474 -1077.77,-318.895c-339.254,-218.553 -596.358,-521.634 -771.313,-909.242c-174.954,-387.609 -228.58,-817.067 -160.877,-1288.38c67.704,-471.308 248.191,-934.582 541.463,-1389.82c371.727,-577.021 767.3,-1006.36 1186.72,-1288.01c419.419,-281.654 869.481,-424.582 1350.18,-428.782c480.704,-4.201 937.912,125.195 1371.63,388.189Z" style="fill:none;fill-rule:nonzero;stroke:#fff;stroke-width:75px;"/></g></svg>