<?xml version="1.0" encoding="utf-8"?>
<!-- Generator: Adobe Illustrator 26.0.1, SVG Export Plug-In . SVG Version: 6.00 Build 0)  -->
<svg version="1.1" id="Layer_1" xmlns="http://www.w3.org/2000/svg" xmlns:xlink="http://www.w3.org/1999/xlink" x="0px" y="0px"
	 viewBox="0 0 1589.24 744.39" enable-background="new 0 0 1589.24 744.39" xml:space="preserve">
<g id="Layer_2_00000160149327480226070150000006764870324411923391_">
	<g id="_5">
		<path fill="#1A1A1A" d="M1479.99,790.36c-32.61,0-71.28-7.63-105.23-14.33c-34.47-6.8-64.23-12.67-70.88-6.23
			c-0.2,0.19-0.47,0.3-0.74,0.28c-0.28-0.01-0.53-0.14-0.71-0.35c-0.29-0.34-28.99-34.15-46.03-79.32
			c-10.02-26.57-14.11-51.83-12.16-75.07c2.44-29.1,14.41-55.07,35.58-77.2c44.38-46.41,94.34-69.94,144.45-68.08
			c43.86,1.63,84.96,23.12,115.71,60.49c28.44,34.56,42.97,81.48,40.92,132.11c-1.87,46.22-17.56,87.68-41.98,110.91
			C1525.85,786,1504.65,790.36,1479.99,790.36z M1316.06,765.06c13.41,0,34.51,4.16,59.09,9.01c56.04,11.05,132.8,26.2,162.39-1.96
			c24.04-22.88,39.51-63.83,41.36-109.54c2.03-50.14-12.34-96.58-40.47-130.76c-30.38-36.92-70.96-58.15-114.24-59.76
			c-49.54-1.86-98.95,21.48-142.93,67.47c-47.19,49.34-38.55,108.88-23.01,150.13c15.51,41.14,40.77,72.8,45.06,78.02
			C1305.9,765.84,1310.26,765.06,1316.06,765.06z"/>
		<path fill="#1A1A1A" d="M1279.09,829.66c-0.83,0-1.5-0.67-1.5-1.5c0-0.13,0.02-0.26,0.05-0.38
			c21.82-83.51,75.29-153.04,116.31-196.66c44.42-47.24,84.23-75.14,84.63-75.41c0.68-0.47,1.62-0.31,2.09,0.37s0.31,1.62-0.37,2.09
			c-0.4,0.27-39.99,28.03-84.2,75.06c-40.76,43.36-93.89,112.44-115.55,195.31C1280.37,829.2,1279.77,829.66,1279.09,829.66z"/>
		<path fill="#1A1A1A" d="M1528.83,609.46c-0.21,0-0.42-0.07-0.6-0.2c-0.39-0.29-39.88-29.38-75.16-30.82
			c-0.55-0.02-0.98-0.49-0.96-1.04c0-0.07,0.01-0.14,0.03-0.21c8.34-32.53-20.59-62.66-20.89-62.96c-0.39-0.4-0.38-1.03,0.02-1.41
			s1.03-0.38,1.41,0.02c0.3,0.3,29.32,30.5,21.68,63.67c35.58,2.07,74.66,30.86,75.05,31.16c0.44,0.33,0.53,0.96,0.2,1.4
			C1529.44,609.31,1529.14,609.46,1528.83,609.46z"/>
		<path fill="#1A1A1A" d="M1535.89,665.21c-0.34,0-0.65-0.17-0.84-0.45c-30.9-46.95-89.57-61.88-109.56-63.68
			c-0.51-0.05-0.91-0.47-0.91-0.99c-0.19-25.54-47.87-70.18-48.36-70.62c-0.4-0.38-0.42-1.01-0.05-1.41
			c0.38-0.4,1.01-0.42,1.41-0.05c1.97,1.83,47.74,44.7,48.97,71.17c21.06,2.17,79.27,17.55,110.17,64.48
			c0.3,0.46,0.18,1.08-0.29,1.39C1536.28,665.15,1536.09,665.21,1535.89,665.21L1535.89,665.21z"/>
		<path fill="#1A1A1A" d="M1527.49,728.99c-0.4,0-0.76-0.24-0.92-0.61c-16.35-38.58-45.95-63.63-67.9-77.85
			c-26.09-16.91-51.1-24.49-61.39-23.04c-0.55,0.08-1.05-0.3-1.13-0.85c0-0.02,0-0.03-0.01-0.05
			c-3.57-40.96-74.7-106.98-75.42-107.65c-0.41-0.37-0.43-1.01-0.06-1.41s1.01-0.43,1.41-0.06c2.93,2.7,71.29,66.17,75.95,107.92
			c11.4-0.96,35.75,6.63,61.72,23.46c22.19,14.37,52.1,39.7,68.66,78.75c0.22,0.51-0.02,1.1-0.53,1.31
			C1527.76,728.96,1527.62,728.99,1527.49,728.99z"/>
		<path fill="#1A1A1A" d="M1487.74,737.6c-0.41,0-0.78-0.25-0.93-0.64c-17.6-45.34-86.38-83.27-111.39-81.89
			c-0.52,0.03-0.98-0.35-1.04-0.86c-6.28-46.29-57.07-82-57.58-82.36c-0.45-0.31-0.57-0.94-0.25-1.39s0.94-0.57,1.39-0.25
			c0,0,0,0,0,0c0.52,0.36,51.37,36.11,58.29,82.83c13.69-0.23,37.32,9.36,59.35,24.2c25.98,17.51,45.34,39.01,53.09,59
			c0.2,0.51-0.05,1.09-0.57,1.29C1487.99,737.58,1487.87,737.6,1487.74,737.6L1487.74,737.6z"/>
		<path fill="#1A1A1A" d="M1445.16,745.21c-0.34,0-0.66-0.17-0.85-0.46c-24.65-38.83-65.62-65.39-93.27-60.47
			c-0.54,0.1-1.06-0.27-1.16-0.81c-0.01-0.05-0.01-0.11-0.02-0.16c-0.53-38.69-59.65-76.63-60.24-77.01
			c-0.47-0.3-0.6-0.91-0.31-1.38c0.3-0.47,0.91-0.6,1.38-0.31c2.45,1.55,59.5,38.17,61.14,77.51c28.36-4.15,69.45,22.61,94.16,61.55
			c0.3,0.47,0.16,1.08-0.31,1.38C1445.54,745.16,1445.35,745.21,1445.16,745.21z"/>
		<path fill="#1A1A1A" d="M1411.61,758.1c-0.44,0-0.82-0.28-0.95-0.7c-4.89-15.36-24.16-26.19-35.21-31.27
			c-15.87-7.3-33.9-11.74-44.86-11.02c-0.48,0.02-0.9-0.29-1.03-0.75c-14.1-54.21-57.64-83.48-58.08-83.77
			c-0.46-0.3-0.59-0.92-0.28-1.39c0.3-0.46,0.92-0.59,1.38-0.28c0.44,0.29,44.19,29.68,58.71,84.15
			c22.98-0.96,73.02,17.77,81.28,43.73c0.17,0.53-0.12,1.09-0.65,1.26C1411.81,758.08,1411.71,758.1,1411.61,758.1z"/>
		<path fill="#1A1A1A" d="M1286.89,765.06c0,0,53.55-88.33,16.16-123.41s-102.24-74.03-151.66-17.12s-46.59,128.12,20.33,160.03
			S1248.11,758.81,1286.89,765.06z"/>
		<path fill="#1A1A1A" d="M1208.37,795.23c-10.2,0-22.27-2.71-37.08-9.77c-29.03-13.84-47.35-35.49-53-62.61
			c-6.59-31.64,5.2-67.72,32.35-98.98c15.84-18.24,34.47-28.03,55.37-29.1c40.07-2.03,78.42,28.04,97.72,46.15
			c15.59,14.63,17.74,40.88,6.21,75.91c-5.76,16.95-13.19,33.28-22.19,48.76c-0.21,0.35-0.61,0.53-1.01,0.47
			c-14.89-2.4-25.52,5-36.78,12.84C1238.68,786.72,1226.45,795.23,1208.37,795.23z M1209.92,596.67c-1.27,0-2.54,0.03-3.81,0.1
			c-20.34,1.04-38.5,10.6-53.97,28.41c-26.74,30.79-38.36,66.24-31.9,97.26c5.52,26.48,23.46,47.65,51.9,61.21
			c40.02,19.08,58.64,6.12,76.66-6.41c11.43-7.95,22.24-15.47,37.57-13.27c4.48-7.64,50.81-88.92,15.99-121.59
			C1283.91,625.06,1247.86,596.67,1209.92,596.67z"/>
		<path fill="#FFFFFF" d="M1297.98,827.36c-0.83,0-1.5-0.67-1.5-1.5c0-0.44,0.19-0.85,0.52-1.13c0.45-1.08,2.18-9.16-11.56-59.26
			c-10.73-39.12-44.74-67.39-71.38-84.21c-17.65-11.13-36.44-20.35-56.04-27.5c-0.79-0.26-1.21-1.12-0.94-1.9
			c0.26-0.78,1.11-1.21,1.9-0.94c19.81,7.22,38.79,16.53,56.63,27.78c27.11,17.11,61.74,45.92,72.73,85.99
			c9.75,35.55,13.73,57.46,11.19,61.69c-0.25,0.47-0.69,0.82-1.21,0.96C1298.21,827.34,1298.09,827.36,1297.98,827.36z
			 M1297.63,824.4L1297.63,824.4z M1297.63,824.4L1297.63,824.4z M1297.64,824.4L1297.64,824.4z M1297.64,824.39L1297.64,824.39z"/>
		<path fill="#FFFFFF" d="M1226.26,773.67c-0.55,0-1-0.45-1-1c0-0.1,0.01-0.2,0.04-0.3c3.56-11.55,17.88-34.19,33.76-38.17
			c6.44-1.61,12.47-0.09,17.96,4.53c-0.53-23.55,22.01-57.75,23-59.24c0.31-0.46,0.93-0.59,1.39-0.28c0.46,0.31,0.59,0.93,0.28,1.39
			c0,0,0,0,0,0c-0.25,0.37-24.79,37.6-22.53,60.44c0.05,0.55-0.35,1.04-0.9,1.09c-0.3,0.03-0.59-0.08-0.8-0.29
			c-5.45-5.4-11.47-7.32-17.91-5.7c-14.93,3.74-28.99,25.96-32.33,36.82C1227.09,773.38,1226.7,773.67,1226.26,773.67z"/>
		<path fill="#FFFFFF" d="M1201.32,779.72c-0.55,0-1-0.45-1-1c0-0.03,0-0.07,0.01-0.1c2.67-25.04,15.4-46.48,34.08-57.33
			c9.9-5.76,19.97-7.41,27.94-4.66c-4.68-42.25,20.85-72.19,21.11-72.5c0.36-0.42,1-0.46,1.41-0.1c0.41,0.36,0.46,0.99,0.1,1.41
			c-0.26,0.3-25.87,30.38-20.44,72.59c0.07,0.55-0.32,1.05-0.86,1.12c-0.18,0.02-0.36,0-0.53-0.08c-7.6-3.32-17.71-1.88-27.72,3.94
			c-18.12,10.54-30.49,31.4-33.09,55.81C1202.26,779.34,1201.83,779.72,1201.32,779.72z"/>
		<path fill="#FFFFFF" d="M1177.5,756.39c-0.53,0-0.96-0.41-1-0.93c-0.85-12.58,4.31-24.94,14.91-35.75
			c14.85-15.14,35.86-23.26,46.14-23.66c-13.53-32.68,9.85-69.25,10.09-69.62c0.3-0.46,0.92-0.59,1.38-0.29
			c0.46,0.3,0.59,0.92,0.29,1.38c-0.24,0.37-23.7,37.09-9.34,69.12c0.14,0.32,0.11,0.69-0.09,0.97c-0.19,0.29-0.53,0.45-0.87,0.44
			c-9.38-0.44-31.51,8.1-46.19,23.06c-10.19,10.38-15.15,22.21-14.34,34.21c0.04,0.55-0.38,1.03-0.93,1.07
			C1177.55,756.39,1177.52,756.39,1177.5,756.39z"/>
		<path fill="#FFFFFF" d="M1143.57,751.21c-0.03,0-0.05,0-0.08,0c-0.55-0.04-0.96-0.53-0.92-1.08c4.08-51.65,41.6-64.13,64.01-71.58
			c1.35-0.45,2.65-0.88,3.87-1.3c-8.47-17.8-0.62-57.77-0.27-59.5c0.11-0.54,0.63-0.89,1.17-0.79s0.89,0.63,0.79,1.17
			c0,0,0,0,0,0.01c-0.08,0.42-8.38,42.61,0.6,59.2c0.26,0.49,0.08,1.09-0.4,1.36c-0.05,0.03-0.1,0.05-0.15,0.06
			c-1.54,0.54-3.21,1.09-4.98,1.68c-21.95,7.3-58.68,19.51-62.65,69.84C1144.52,750.81,1144.09,751.21,1143.57,751.21z"/>
		<path fill="#FFFFFF" d="M1140.13,694.93c-0.07,0-0.15-0.01-0.22-0.02c-0.54-0.12-0.88-0.65-0.76-1.19c0,0,0,0,0,0
			c3.1-13.89,25.26-28.13,46.98-30.4c-4.1-10.44,0.17-27.44,0.36-28.18c0.14-0.54,0.68-0.86,1.22-0.72s0.86,0.68,0.72,1.22
			c-0.05,0.18-4.66,18.52,0.07,28.11c0.24,0.5,0.04,1.1-0.45,1.34c-0.11,0.06-0.24,0.09-0.36,0.1
			c-21.38,1.73-43.58,15.54-46.58,28.98C1141.01,694.6,1140.6,694.93,1140.13,694.93z"/>
		<path fill="#FFFFFF" d="M1408.67,801.16c0,0-31.97-55.47-19.85-81.93s104.62-94.93,161.8-30.21s1.51,159.56-51.64,148.52
			S1427.44,799.94,1408.67,801.16z"/>
		<path fill="#1A1A1A" d="M1507.54,839.41c-2.94,0-5.88-0.3-8.76-0.9c-30.04-6.24-49.22-17.52-63.22-25.75
			c-10.97-6.45-18.9-11.12-26.82-10.6c-0.38,0.02-0.74-0.17-0.93-0.5c-1.32-2.28-32.09-56.22-19.9-82.85
			c7.23-15.8,45.63-50.15,90.23-56.76c28.92-4.29,54.24,4.81,73.24,26.3c34.15,38.64,27.1,85.36,10.69,113.63
			C1548.41,825.5,1527.75,839.41,1507.54,839.41z M1409.95,800.12c8.05,0,15.93,4.63,26.61,10.92c13.88,8.16,32.9,19.35,62.62,25.52
			c21.95,4.57,45.96-9.4,61.15-35.57c16.08-27.69,22.98-73.46-10.46-111.3c-18.79-21.26-42.83-29.89-71.44-25.65
			c-42.09,6.24-81.35,39.56-88.7,55.62c-11.14,24.34,16.31,74.75,19.51,80.49C1409.47,800.13,1409.71,800.12,1409.95,800.12z"/>
		<path fill="#1A1A1A" d="M1389.79,828.82c-0.08,0-0.15-0.01-0.22-0.02c-0.81-0.12-1.37-0.87-1.26-1.68
			c0.08-0.58,2.42-14.59,43.26-50.91c20.47-18.15,43.46-33.24,68.26-44.79c24.52-11.22,46.23-15.91,61.14-13.22
			c0.82,0.15,1.36,0.93,1.21,1.75c-0.15,0.81-0.93,1.35-1.74,1.21c-29.1-5.25-84.84,19.92-126.87,57.3
			c-39.57,35.19-42.27,48.97-42.29,49.1C1391.15,828.28,1390.52,828.82,1389.79,828.82z"/>
		<path fill="#1A1A1A" d="M1502.07,807.73c-0.31,0-0.61-0.15-0.8-0.4c-13.52-17.93-51.6-31.74-65.51-31.81c-0.55,0-1-0.45-0.99-1.01
			c0-0.12,0.02-0.23,0.06-0.34c7.97-21.82-15.05-51.72-15.28-52.02c-0.34-0.44-0.26-1.06,0.17-1.4s1.06-0.26,1.4,0.17l0,0
			c0.96,1.23,23.08,29.98,16.02,52.64c15.22,0.9,52.28,14.74,65.72,32.56c0.33,0.44,0.25,1.07-0.2,1.4
			C1502.5,807.66,1502.29,807.73,1502.07,807.73z"/>
		<path fill="#1A1A1A" d="M1540.74,814.46c-0.43,0-0.82-0.28-0.95-0.69c-5.73-17.46-24.66-31.37-39.54-39.96
			c-17.68-10.21-35.27-16.04-41.17-16.32c-0.55-0.03-0.98-0.5-0.95-1.05c0-0.01,0-0.02,0-0.03c2.92-35.39-18.64-59.6-18.86-59.84
			c-0.37-0.41-0.34-1.04,0.07-1.41s1.04-0.34,1.41,0.07l0,0c0.22,0.24,21.96,24.61,19.45,60.35c14.73,1.69,70.79,24.95,81.49,57.56
			c0.17,0.52-0.11,1.09-0.64,1.26C1540.95,814.44,1540.85,814.46,1540.74,814.46z"/>
		<path fill="#1A1A1A" d="M1531.41,774.18c-0.38,0-0.73-0.22-0.9-0.56c-11.18-23.13-35.32-28.96-48.72-30.37
			c-0.55-0.06-0.95-0.55-0.89-1.1c0,0,0-0.01,0-0.01c3.21-27.63-20.07-61.24-20.31-61.57c-0.32-0.45-0.21-1.08,0.24-1.39
			c0.45-0.32,1.08-0.21,1.39,0.24c0,0,0,0,0,0c0.97,1.38,23.42,33.79,20.76,61.95c13.98,1.64,37.99,7.94,49.32,31.37
			c0.24,0.5,0.03,1.1-0.47,1.34C1531.71,774.14,1531.56,774.18,1531.41,774.18z"/>
		<path fill="#1A1A1A" d="M1554.86,772.3c-0.49,0-0.9-0.35-0.98-0.83c-3.56-21.04-33.8-39.95-50.19-40.22
			c-0.55-0.01-0.99-0.46-0.98-1.02c0-0.18,0.06-0.36,0.15-0.51c12.25-19.69-9.06-51.86-9.27-52.19c-0.31-0.46-0.18-1.08,0.28-1.39
			c0.46-0.3,1.07-0.18,1.38,0.27c0.89,1.33,21.27,32.12,10.15,52.91c17.66,1.41,46.8,20.19,50.46,41.8
			c0.09,0.54-0.27,1.06-0.82,1.15C1554.97,772.29,1554.92,772.3,1554.86,772.3z"/>
		<path fill="#1A1A1A" d="M1558.05,739.23c-0.47,0-0.88-0.33-0.98-0.79c-2.01-9.5-15.06-15.2-23.68-16.22
			c-0.55-0.06-0.94-0.56-0.88-1.11c0.02-0.16,0.08-0.32,0.17-0.45c9.67-13.91,1.47-23.14,1.11-23.53c-0.37-0.41-0.35-1.04,0.06-1.41
			c0.41-0.37,1.04-0.35,1.41,0.06c0.09,0.1,9.13,10.14-0.06,24.7c9.15,1.57,21.73,7.68,23.81,17.56c0.11,0.54-0.23,1.07-0.77,1.19
			C1558.19,739.22,1558.12,739.23,1558.05,739.23z"/>
		<path fill="#1A1A1A" d="M264.53,810.2l578.59-27.23L682.26-26.55c-7.68-39.26-42.08-67.58-82.09-67.58H174.93
			c-46.19,0-83.64,37.44-83.64,83.64c0,5.39,0.52,10.77,1.56,16.06L264.53,810.2z"/>
		<path fill="#1A1A1A" d="M264.53,811.2c-0.47,0-0.88-0.33-0.98-0.79L91.87,5.77c-8.98-45.87,20.93-90.34,66.8-99.33
			c5.36-1.05,10.81-1.58,16.27-1.58h425.24c40.46,0.06,75.24,28.7,83.07,68.39L844.1,782.77c0.11,0.54-0.24,1.07-0.79,1.18
			c-0.05,0.01-0.1,0.02-0.15,0.02L264.58,811.2C264.56,811.2,264.55,811.2,264.53,811.2z M174.93-93.14
			c-45.64,0-82.64,37-82.64,82.64c0,5.33,0.51,10.64,1.54,15.87l171.5,803.8l576.58-27.14L681.28-26.36
			c-7.65-38.76-41.6-66.71-81.11-66.78H174.93z"/>
		<path fill="#1A1A1A" d="M305.47-125.68h38.34l-6.91-34.74c-3.96-19.94,8.99-36.1,28.92-36.1h0c19.94,0,39.31,16.16,43.27,36.1
			l6.91,34.74h37.85c11.2,0,21.25,6.86,25.34,17.28l12.64,32.23H284.21l-4.56-13.69c-4.75-14.26,2.95-29.67,17.21-34.43
			C299.64-125.21,302.54-125.68,305.47-125.68z"/>
		<path fill="#1A1A1A" d="M491.84-75.17H284.21c-0.43,0-0.81-0.28-0.95-0.68l-4.56-13.69c-4.93-14.78,3.06-30.77,17.85-35.69
			c2.88-0.96,5.89-1.45,8.92-1.45h37.12l-6.67-33.54c-2-10.07,0.1-19.52,5.91-26.6c5.66-6.89,14.18-10.69,24-10.69
			c20.36,0,40.21,16.55,44.25,36.9l6.75,33.93h37.03c11.62-0.05,22.07,7.08,26.27,17.92l12.64,32.23c0.2,0.51-0.05,1.09-0.57,1.3
			C492.09-75.19,491.96-75.17,491.84-75.17L491.84-75.17z M284.93-77.17h205.44l-12.11-30.87c-3.9-10.07-13.61-16.69-24.41-16.65
			H416c-0.48,0-0.89-0.34-0.98-0.81l-6.91-34.74c-3.87-19.46-22.84-35.29-42.29-35.29c-9.21,0-17.18,3.54-22.45,9.96
			c-5.42,6.61-7.38,15.47-5.49,24.94l6.91,34.74c0.11,0.54-0.24,1.07-0.79,1.18c-0.06,0.01-0.13,0.02-0.19,0.02h-38.34
			c-14.48,0-26.22,11.74-26.22,26.22c0,2.82,0.45,5.62,1.35,8.29L284.93-77.17z"/>
		<path fill="#FFFFFF" d="M289.18,806.17l578.59-27.23L706.9-30.59c-7.68-39.26-42.08-67.58-82.09-67.58H199.58
			c-46.19,0-83.64,37.44-83.64,83.64c0,5.39,0.52,10.77,1.56,16.06L289.18,806.17z"/>
		<path fill="#1A1A1A" d="M289.18,807.17c-0.47,0-0.88-0.33-0.98-0.79L116.52,1.73c-8.98-45.87,20.92-90.34,66.8-99.33
			c5.36-1.05,10.81-1.58,16.27-1.58h425.24c40.46,0.06,75.24,28.7,83.07,68.39l160.86,809.52c0.11,0.54-0.24,1.07-0.79,1.18
			c-0.05,0.01-0.1,0.02-0.15,0.02l-578.59,27.24C289.21,807.17,289.19,807.17,289.18,807.17z M199.58-97.17
			c-45.64,0-82.64,37-82.64,82.64c0,5.33,0.51,10.64,1.54,15.87l171.5,803.8l576.58-27.14L705.92-30.39
			c-7.65-38.76-41.6-66.71-81.11-66.78H199.58z"/>
		<ellipse fill="#FFFFFF" cx="618.68" cy="68.33" rx="44.07" ry="38.09"/>
		<path fill="#1A1A1A" d="M618.68,107.42c-24.85,0-45.06-17.53-45.06-39.09s20.22-39.09,45.06-39.09
			c24.85,0,45.07,17.53,45.07,39.09S643.53,107.42,618.68,107.42z M618.68,31.25c-23.75,0-43.06,16.64-43.06,37.09
			s19.32,37.09,43.06,37.09c23.75,0,43.07-16.64,43.07-37.09S642.42,31.25,618.68,31.25z"/>
		<ellipse fill="#1A1A1A" cx="637.35" cy="160.29" rx="44.07" ry="38.09"/>
		<path fill="#1A1A1A" d="M637.35,199.38c-24.85,0-45.06-17.53-45.06-39.09s20.22-39.09,45.06-39.09s45.07,17.53,45.07,39.09
			S662.2,199.38,637.35,199.38z M637.35,123.2c-23.75,0-43.06,16.64-43.06,37.09s19.32,37.09,43.06,37.09
			c23.75,0,43.07-16.64,43.07-37.09S661.09,123.2,637.35,123.2z"/>
		<ellipse fill="#FFFFFF" cx="656.02" cy="247.72" rx="44.07" ry="38.09"/>
		<path fill="#1A1A1A" d="M656.02,286.81c-24.85,0-45.07-17.53-45.07-39.09s20.22-39.09,45.07-39.09
			c24.85,0,45.07,17.53,45.07,39.09S680.87,286.81,656.02,286.81z M656.02,210.63c-23.75,0-43.07,16.64-43.07,37.09
			s19.32,37.09,43.07,37.09s43.07-16.64,43.07-37.09S679.77,210.63,656.02,210.63L656.02,210.63z"/>
		<ellipse fill="#FFFFFF" cx="671.7" cy="333.32" rx="44.07" ry="38.09"/>
		<path fill="#1A1A1A" d="M671.7,372.41c-24.85,0-45.07-17.53-45.07-39.09s20.22-39.09,45.07-39.09s45.06,17.53,45.06,39.09
			S696.55,372.41,671.7,372.41z M671.7,296.23c-23.75,0-43.07,16.64-43.07,37.09s19.32,37.09,43.07,37.09
			c23.75,0,43.06-16.64,43.06-37.09S695.45,296.23,671.7,296.23z"/>
		<ellipse fill="#FFFFFF" cx="693.36" cy="432.87" rx="44.07" ry="38.09"/>
		<path fill="#1A1A1A" d="M693.36,471.96c-24.85,0-45.06-17.54-45.06-39.09s20.22-39.09,45.06-39.09s45.07,17.53,45.07,39.09
			S718.21,471.96,693.36,471.96z M693.36,395.78c-23.75,0-43.06,16.64-43.06,37.09s19.32,37.09,43.06,37.09
			c23.75,0,43.07-16.64,43.07-37.09S717.11,395.78,693.36,395.78z"/>
		<ellipse fill="#FFFFFF" cx="709.79" cy="525.47" rx="44.07" ry="38.09"/>
		<path fill="#1A1A1A" d="M709.79,564.56c-24.85,0-45.06-17.54-45.06-39.09s20.22-39.09,45.06-39.09s45.07,17.54,45.07,39.09
			S734.64,564.56,709.79,564.56z M709.79,488.38c-23.75,0-43.06,16.64-43.06,37.09s19.32,37.09,43.06,37.09
			c23.75,0,43.07-16.64,43.07-37.09S733.54,488.38,709.79,488.38z"/>
		<ellipse fill="#FFFFFF" cx="734.19" cy="615.09" rx="44.07" ry="38.09"/>
		<path fill="#1A1A1A" d="M734.19,654.18c-24.85,0-45.07-17.54-45.07-39.09s20.22-39.09,45.07-39.09s45.06,17.54,45.06,39.09
			S759.04,654.18,734.19,654.18z M734.19,578.01c-23.75,0-43.07,16.64-43.07,37.09s19.32,37.09,43.07,37.09
			c23.75,0,43.06-16.64,43.06-37.09S757.94,578.01,734.19,578.01z"/>
		<polygon fill="#FFFFFF" points="574.61,266.08 255.47,266.08 249.21,238.4 568.35,238.4 		"/>
		<polygon fill="#FFFFFF" points="593.28,358.04 274.14,358.04 267.88,330.35 587.02,330.35 		"/>
		<polygon fill="#FFFFFF" points="611.96,449.99 292.81,449.99 286.55,422.3 603.37,422.3 		"/>
		<polygon fill="#FFFFFF" points="630.63,541.94 311.48,541.94 305.22,514.26 624.37,514.26 		"/>
		<polygon fill="#FFFFFF" points="654.54,630.15 335.4,630.15 329.14,602.46 648.28,602.46 		"/>
		<polygon fill="#FFFFFF" points="574.61,266.08 255.47,266.08 249.21,238.4 568.35,238.4 		"/>
		<path fill="#1A1A1A" d="M574.61,267.08H255.47c-0.47,0-0.87-0.32-0.98-0.78l-6.26-27.68c-0.12-0.54,0.22-1.07,0.75-1.2
			c0.07-0.02,0.15-0.02,0.22-0.02h319.14c0.47,0,0.87,0.32,0.98,0.78l6.26,27.68c0.12,0.54-0.22,1.07-0.75,1.2
			C574.76,267.07,574.69,267.08,574.61,267.08z M256.27,265.08h317.09l-5.81-25.68H250.46L256.27,265.08z"/>
		<polygon fill="#FFFFFF" points="593.28,358.04 274.14,358.04 267.88,330.35 587.02,330.35 		"/>
		<path fill="#1A1A1A" d="M593.28,359.03H274.14c-0.47,0-0.87-0.32-0.98-0.78l-6.26-27.68c-0.12-0.54,0.22-1.07,0.75-1.2
			c0.07-0.02,0.15-0.02,0.22-0.02h319.14c0.47,0,0.87,0.32,0.98,0.78l6.26,27.68c0.12,0.54-0.22,1.07-0.75,1.2
			C593.43,359.03,593.36,359.03,593.28,359.03z M274.94,357.03h317.09l-5.81-25.68H269.13L274.94,357.03z"/>
		<polygon fill="#FFFFFF" points="611.96,449.99 292.81,449.99 286.55,422.3 603.37,422.3 		"/>
		<path fill="#1A1A1A" d="M611.95,450.99H292.81c-0.47,0-0.87-0.32-0.98-0.78l-6.26-27.68c-0.12-0.54,0.22-1.07,0.76-1.2
			c0.07-0.02,0.15-0.02,0.22-0.02h316.82c0.44,0,0.83,0.29,0.96,0.7l8.58,27.68c0.16,0.53-0.13,1.09-0.66,1.25
			C612.15,450.97,612.05,450.99,611.95,450.99z M293.61,448.99H610.6l-7.96-25.68H287.8L293.61,448.99z"/>
		<polygon fill="#FFFFFF" points="630.63,541.94 311.48,541.94 305.22,514.26 624.37,514.26 		"/>
		<path fill="#1A1A1A" d="M630.63,542.94H311.48c-0.47,0-0.87-0.32-0.98-0.78l-6.26-27.68c-0.12-0.54,0.22-1.07,0.76-1.2
			c0.07-0.02,0.15-0.02,0.22-0.02h319.14c0.47,0,0.87,0.32,0.98,0.78l6.26,27.68c0.12,0.54-0.22,1.07-0.76,1.2
			C630.77,542.93,630.7,542.94,630.63,542.94L630.63,542.94z M312.28,540.94h317.09l-5.81-25.68H306.47L312.28,540.94z"/>
		<polygon fill="#FFFFFF" points="654.54,630.15 335.4,630.15 329.14,602.46 648.28,602.46 		"/>
		<path fill="#1A1A1A" d="M654.54,631.15H335.4c-0.47,0-0.87-0.32-0.98-0.78l-6.26-27.68c-0.12-0.54,0.22-1.07,0.76-1.2
			c0.07-0.02,0.15-0.02,0.22-0.02h319.14c0.47,0,0.87,0.32,0.98,0.78l6.26,27.68c0.12,0.54-0.22,1.07-0.76,1.2
			C654.69,631.14,654.61,631.15,654.54,631.15z M336.19,629.15h317.09l-5.81-25.68H330.39L336.19,629.15z"/>
		<path fill="#1A1A1A" d="M574.61,267.08H255.47c-0.47,0-0.87-0.32-0.98-0.78l-6.26-27.68c-0.12-0.54,0.22-1.07,0.75-1.2
			c0.07-0.02,0.15-0.02,0.22-0.02h319.14c0.47,0,0.87,0.32,0.98,0.78l6.26,27.68c0.12,0.54-0.22,1.07-0.75,1.2
			C574.76,267.07,574.69,267.08,574.61,267.08z M256.27,265.08h317.09l-5.81-25.68H250.46L256.27,265.08z"/>
		<path fill="#1A1A1A" d="M593.28,359.03H274.14c-0.47,0-0.87-0.32-0.98-0.78l-6.26-27.68c-0.12-0.54,0.22-1.07,0.75-1.2
			c0.07-0.02,0.15-0.02,0.22-0.02h319.14c0.47,0,0.87,0.32,0.98,0.78l6.26,27.68c0.12,0.54-0.22,1.07-0.75,1.2
			C593.43,359.03,593.36,359.03,593.28,359.03z M274.94,357.03h317.09l-5.81-25.68H269.13L274.94,357.03z"/>
		<path fill="#1A1A1A" d="M611.95,450.99H292.81c-0.47,0-0.87-0.32-0.98-0.78l-6.26-27.68c-0.12-0.54,0.22-1.07,0.76-1.2
			c0.07-0.02,0.15-0.02,0.22-0.02h316.82c0.44,0,0.83,0.29,0.96,0.7l8.58,27.68c0.16,0.53-0.13,1.09-0.66,1.25
			C612.15,450.97,612.05,450.99,611.95,450.99z M293.61,448.99H610.6l-7.96-25.68H287.8L293.61,448.99z"/>
		<path fill="#1A1A1A" d="M630.63,542.94H311.48c-0.47,0-0.87-0.32-0.98-0.78l-6.26-27.68c-0.12-0.54,0.22-1.07,0.76-1.2
			c0.07-0.02,0.15-0.02,0.22-0.02h319.14c0.47,0,0.87,0.32,0.98,0.78l6.26,27.68c0.12,0.54-0.22,1.07-0.76,1.2
			C630.77,542.93,630.7,542.94,630.63,542.94L630.63,542.94z M312.28,540.94h317.09l-5.81-25.68H306.47L312.28,540.94z"/>
		<path fill="#1A1A1A" d="M654.54,631.15H335.4c-0.47,0-0.87-0.32-0.98-0.78l-6.26-27.68c-0.12-0.54,0.22-1.07,0.76-1.2
			c0.07-0.02,0.15-0.02,0.22-0.02h319.14c0.47,0,0.87,0.32,0.98,0.78l6.26,27.68c0.12,0.54-0.22,1.07-0.76,1.2
			C654.69,631.14,654.61,631.15,654.54,631.15z M336.19,629.15h317.09l-5.81-25.68H330.39L336.19,629.15z"/>
		<path fill="#FFFFFF" d="M316.42-125.68h38.34l-6.91-34.74c-3.96-19.94,8.99-36.1,28.92-36.1h0c19.94,0,39.31,16.16,43.27,36.1
			l6.91,34.74h37.85c11.2,0,21.25,6.86,25.34,17.28l12.64,32.23H295.16l-4.56-13.69c-4.75-14.26,2.95-29.67,17.21-34.43
			C310.59-125.21,313.49-125.68,316.42-125.68z"/>
		<path fill="#1A1A1A" d="M502.79-75.17H295.16c-0.43,0-0.81-0.28-0.95-0.68l-4.56-13.69c-4.93-14.78,3.06-30.77,17.85-35.69
			c2.88-0.96,5.89-1.45,8.92-1.45h37.12l-6.67-33.54c-2-10.07,0.1-19.52,5.91-26.6c5.66-6.89,14.18-10.69,24-10.69
			c20.36,0,40.21,16.55,44.25,36.9l6.75,33.93h37.03c11.62-0.05,22.07,7.08,26.27,17.92l12.64,32.23c0.2,0.51-0.05,1.09-0.57,1.3
			C503.04-75.19,502.91-75.17,502.79-75.17L502.79-75.17z M295.88-77.17h205.44l-12.11-30.87c-3.9-10.07-13.61-16.69-24.41-16.65
			h-37.85c-0.48,0-0.89-0.34-0.98-0.81l-6.91-34.74c-3.87-19.46-22.84-35.29-42.29-35.29c-9.21,0-17.18,3.54-22.45,9.96
			c-5.42,6.61-7.38,15.47-5.49,24.94l6.91,34.74c0.11,0.54-0.24,1.07-0.79,1.18c-0.06,0.01-0.13,0.02-0.19,0.02h-38.34
			c-14.48,0-26.22,11.74-26.22,26.22c0,2.82,0.45,5.62,1.35,8.29L295.88-77.17z"/>
		<circle fill="#1A1A1A" cx="382.29" cy="-163.29" r="13.69"/>
		<path fill="#1A1A1A" d="M382.29-148.6c-8.11,0-14.69-6.58-14.69-14.69c0-8.11,6.58-14.69,14.69-14.69
			c8.11,0,14.69,6.58,14.69,14.69C396.97-155.18,390.4-148.61,382.29-148.6z M382.29-175.99c-7.01,0-12.69,5.68-12.69,12.69
			c0,7.01,5.68,12.69,12.69,12.69c7.01,0,12.69-5.68,12.69-12.69C394.98-170.3,389.3-175.98,382.29-175.99z"/>
		<path fill="#1A1A1A" d="M1417.91,429.08c-0.83,0-1.5-0.67-1.5-1.5c0-0.03,0-0.06,0-0.09l4.65-80.16c0.05-0.83,0.76-1.46,1.58-1.41
			c0.26,0.02,0.52,0.1,0.74,0.24l67.1,44.11c0.69,0.45,0.88,1.38,0.43,2.08c-0.14,0.22-0.34,0.4-0.58,0.52l-71.75,36.05
			C1418.38,429.02,1418.15,429.08,1417.91,429.08z M1423.91,350.1l-4.35,74.97l67.11-33.72L1423.91,350.1z"/>
		<polygon fill="#FFFFFF" points="67.62,499.34 34.31,512.76 1,526.17 6.04,490.62 11.08,455.06 39.35,477.2 		"/>
		<path fill="#1A1A1A" d="M1,527.17c-0.55,0-1-0.45-1-1c0-0.05,0-0.09,0.01-0.14l10.08-71.1c0.08-0.55,0.58-0.93,1.13-0.85
			c0.17,0.02,0.34,0.09,0.48,0.2l56.54,44.28c0.43,0.34,0.51,0.97,0.17,1.4c-0.11,0.14-0.25,0.25-0.41,0.31L1.37,527.1
			C1.25,527.14,1.13,527.17,1,527.17z M11.82,456.92l-9.59,67.67l63.41-25.53L11.82,456.92z"/>
		<polygon fill="#FFFFFF" points="1237.5,325.53 1187.61,334.14 1137.71,342.75 1155.2,295.23 1172.69,247.72 1205.1,286.62 		"/>
		<path fill="#1A1A1A" d="M1137.71,343.75c-0.55,0-1-0.45-1-1c0-0.12,0.02-0.24,0.06-0.35l34.98-95.03
			c0.19-0.52,0.77-0.78,1.28-0.59c0.16,0.06,0.31,0.16,0.42,0.3l64.81,77.81c0.35,0.42,0.3,1.06-0.13,1.41
			c-0.13,0.11-0.3,0.19-0.47,0.22l-99.79,17.22C1137.83,343.74,1137.77,343.75,1137.71,343.75z M1173.03,249.69l-33.79,91.78
			l96.38-16.63L1173.03,249.69z"/>
		<polygon fill="#1A1A1A" points="203.49,694.73 168.91,725.34 134.34,755.93 125.12,710.69 115.91,665.45 159.7,680.09 		"/>
		<path fill="#1A1A1A" d="M134.34,756.93c-0.11,0-0.21-0.02-0.32-0.05c-0.34-0.11-0.59-0.4-0.66-0.75l-18.42-90.49
			c-0.11-0.54,0.24-1.07,0.78-1.18c0.17-0.04,0.35-0.02,0.52,0.03l87.58,29.29c0.52,0.18,0.81,0.74,0.63,1.27
			c-0.06,0.17-0.15,0.32-0.29,0.43L135,756.68C134.81,756.84,134.58,756.93,134.34,756.93z M117.24,666.94l17.73,87.09l66.56-58.9
			L117.24,666.94z"/>
		<path fill="#FFFFFF" d="M1588.24,845.07c0-37.07-340.4-67.12-760.31-67.12S67.62,807.99,67.62,845.07
			c0,21.53,114.83,40.69,293.37,52.98c-4.32,4.61-6.57,9.33-6.57,14.15c0,49.31,235.41,89.29,525.79,89.29
			s525.79-39.98,525.79-89.29c0-7.56-5.55-14.91-15.98-21.92C1513.16,878.34,1588.24,862.48,1588.24,845.07z"/>
		<path fill="#1A1A1A" d="M880.21,1002.48c-140.5,0-272.6-9.29-371.96-26.17c-99.85-16.96-154.83-39.73-154.83-64.12
			c0-4.47,1.84-8.93,5.48-13.29c-88.44-6.13-161.61-14.04-211.72-22.89c-53.46-9.45-80.56-19.86-80.56-30.94
			c0-23.74,121.6-39.46,223.6-48.46c143.63-12.68,334.59-19.66,537.71-19.66s394.08,6.98,537.71,19.66
			c102.01,9.01,223.6,24.72,223.6,48.46c0,22.02-106.15,37.1-196.42,45.93c9.42,6.85,14.18,13.97,14.18,21.19
			c0,24.4-54.99,47.17-154.83,64.12C1152.81,993.19,1020.71,1002.48,880.21,1002.48z M827.93,778.94
			c-203.06,0-393.96,6.98-537.53,19.66c-69.79,6.16-124.57,13.33-162.82,21.32c-48.73,10.17-58.95,19.29-58.95,25.15
			c0,6.86,13.69,17.45,78.91,28.97c50.41,8.91,124.25,16.87,213.53,23.01c0.55,0.04,0.97,0.52,0.93,1.07
			c-0.02,0.23-0.11,0.45-0.27,0.62c-4.18,4.46-6.3,8.99-6.3,13.46c0,22.97,55.83,45.62,153.17,62.15
			c99.26,16.86,231.24,26.14,371.63,26.14s272.37-9.28,371.63-26.14c97.34-16.53,153.17-39.18,153.17-62.15
			c0-7.06-5.23-14.16-15.53-21.09c-0.46-0.31-0.58-0.93-0.27-1.39c0.17-0.25,0.44-0.41,0.73-0.44
			c125.39-12.15,197.31-28.26,197.31-44.21c0-5.86-10.23-14.98-58.95-25.15c-38.26-7.99-93.04-15.16-162.82-21.32
			C1221.89,785.92,1030.99,778.94,827.93,778.94z"/>
		<path fill="#FFFFFF" d="M688.6,804.99c0.17-2.5,0.33-4.56,0.45-5.9c1.06-11.53,7.72-24.58,7.72-24.58l-34.84-6.02
			c-8.69,8.42-18.06,16.1-28.02,22.97C649.66,803.62,669.87,808.67,688.6,804.99z"/>
		<path fill="#1A1A1A" d="M676.52,807.15c-15.65-0.1-30.83-5.33-43.21-14.89c-0.44-0.34-0.52-0.97-0.18-1.4
			c0.06-0.08,0.14-0.16,0.23-0.21c9.9-6.84,19.22-14.48,27.87-22.85c0.23-0.23,0.56-0.33,0.88-0.28l34.84,6.02
			c0.54,0.09,0.91,0.61,0.81,1.16c-0.02,0.1-0.05,0.19-0.09,0.28c-0.07,0.13-6.59,13.01-7.62,24.21c-0.12,1.33-0.28,3.38-0.45,5.87
			c-0.03,0.45-0.36,0.83-0.81,0.91C684.75,806.76,680.64,807.16,676.52,807.15z M635.63,791.51c15.1,11.18,34.39,15.87,52.03,12.65
			c0.15-2.16,0.29-3.94,0.4-5.15c0.89-9.68,5.55-20.2,7.23-23.73l-33.02-5.71C653.97,777.56,645.06,784.89,635.63,791.51z
			 M688.6,804.99L688.6,804.99z"/>
		<path fill="#1A1A1A" d="M633.92,791.47c-10.94,7.46-23.62,14.27-35.27,15.97c-29.21,5.56-43.81,31.29-43.81,31.29
			s-2.09,9.04,0,11.13c81.37,0.7,131.44-6.26,131.44-6.26s1.42-25.49,2.33-38.61C669.87,808.67,649.66,803.62,633.92,791.47z"/>
		<path fill="#1A1A1A" d="M566.11,850.91c-3.7,0-7.46-0.02-11.28-0.05c-0.26,0-0.51-0.11-0.7-0.29c-2.36-2.36-0.64-10.46-0.27-12.06
			c0.02-0.09,0.06-0.18,0.1-0.27c0.15-0.26,15.17-26.2,44.5-31.78c9.9-1.45,21.63-6.77,34.89-15.81c0.36-0.24,0.83-0.23,1.17,0.03
			c15.46,11.94,35.61,16.92,53.88,13.33c0.54-0.11,1.07,0.25,1.17,0.79c0.02,0.09,0.02,0.17,0.02,0.26
			c-0.9,12.96-2.31,38.34-2.33,38.6c-0.03,0.48-0.39,0.87-0.86,0.93C685.94,844.66,640.03,850.91,566.11,850.91z M555.34,848.86
			c74.52,0.62,123.19-5.27,129.99-6.15c0.24-4.33,1.39-24.62,2.2-36.51c-18.26,3.19-38.16-1.82-53.63-13.51
			c-13.27,8.97-25.08,14.26-35.09,15.73c-27.36,5.21-41.88,28.77-43.02,30.68C555.05,842.31,554.49,847.28,555.34,848.86z"/>
		<path fill="#FFFFFF" d="M915.09,593.81c0,0-112.31-115.78-161-89.71S651.85,773.37,651.85,773.37s33.38,17.73,46.94,13.56
			c58.42-71.97,81.47-126.42,95.03-152.5c26.08,46.94,100.4,113.76,186.99,52.22s59.46-98.05,59.46-98.05L915.09,593.81z"/>
		<path fill="#1A1A1A" d="M693.92,788.56c-15.41,0-41.32-13.66-42.54-14.31c-0.4-0.21-0.6-0.66-0.51-1.1
			c0.13-0.61,13.62-61.57,32.89-124.93c25.93-85.27,49.43-134.06,69.86-145c20.56-11.01,54.15,0.81,99.83,35.16
			c33.84,25.44,62.08,54.45,62.36,54.74c0.38,0.4,0.37,1.03-0.02,1.41s-1.03,0.37-1.41-0.02l0,0
			c-1.12-1.15-112.34-114.95-159.81-89.52c-46.39,24.85-98.23,252.92-101.57,267.85c4.74,2.43,33.08,16.6,45.22,13.22
			c49.71-61.3,73.75-109.88,88.11-138.92c2.49-5.03,4.63-9.37,6.61-13.17c0.17-0.33,0.51-0.53,0.87-0.54
			c0.36,0.01,0.7,0.2,0.89,0.51c15.52,27.94,49.06,64.05,92.5,73.9c31.23,7.08,62.53-0.33,93.03-22.01
			c47.08-33.46,59.99-59.31,62.53-75.1c2.23-13.84-3.23-21.47-3.29-21.54c-0.33-0.44-0.24-1.07,0.21-1.4s1.07-0.24,1.4,0.21l0,0
			c0.25,0.33,6,8.28,3.68,22.93c-2.56,16.19-15.63,42.61-63.36,76.53c-30.99,22.02-62.82,29.54-94.63,22.33
			c-43.25-9.8-76.8-45.2-92.9-73.26c-1.73,3.38-3.62,7.19-5.75,11.49c-14.42,29.15-38.56,77.95-88.55,139.54
			c-0.12,0.15-0.29,0.27-0.48,0.33C697.41,788.36,695.67,788.59,693.92,788.56z"/>
		<path fill="#FFFFFF" d="M1094.87,779.59c-0.56-3.89-2.89-6.6-5.9-8.76c-5.73,1.87-11.82,2.39-17.79,1.5
			c0,0-18.08,23.99-2.43,33.38c6.45-1.29,16.04,1.7,27.05,6.53C1099.8,803.01,1096.33,789.78,1094.87,779.59z"/>
		<path fill="#1A1A1A" d="M1095.81,813.24c-0.14,0-0.28-0.03-0.4-0.08c-12.56-5.51-20.97-7.56-26.46-6.47
			c-0.24,0.05-0.5,0-0.71-0.12c-3.43-1.92-5.83-5.26-6.57-9.12c-2.17-11.12,8.27-25.13,8.72-25.72c0.23-0.3,0.61-0.45,0.99-0.38
			c5.8,0.84,11.71,0.34,17.28-1.47c0.31-0.1,0.64-0.05,0.9,0.14c3.72,2.67,5.78,5.75,6.3,9.43l0,0c0.26,1.84,0.59,3.75,0.93,5.77
			c1.56,9.18,3.32,19.59-0.07,27.42C1096.56,813,1096.2,813.24,1095.81,813.24L1095.81,813.24z M1072.01,804.41
			c5.56,0,13.09,2.12,23.25,6.5c2.64-7.2,1.01-16.83-0.44-25.36c-0.35-2.04-0.67-3.96-0.94-5.83c-0.43-3.02-2.05-5.5-5.08-7.79
			c-5.55,1.73-11.4,2.23-17.16,1.48c-1.79,2.54-9.79,14.5-8,23.66c0.61,3.17,2.54,5.93,5.31,7.58
			C1069.96,804.49,1070.98,804.4,1072.01,804.41z"/>
		<path fill="#1A1A1A" d="M1224.53,830.74c-1.69-3.37-17.79-7.46-36.4-20.23c-27.41-18.81-62.36-48.18-81.83-54.18
			c-3.71,6.87-9.92,12.05-17.33,14.49c3,2.16,5.34,4.87,5.9,8.76c1.46,10.2,4.93,23.42,0.93,32.65
			c21.62,9.48,48.76,26.07,68.57,31.37C1194.28,851.61,1228.7,839.09,1224.53,830.74z"/>
		<path fill="#1A1A1A" d="M1184.71,847.15c-6.95,0.04-13.87-0.83-20.6-2.57c-12.74-3.41-28.48-11.44-43.71-19.21
			c-8.85-4.51-17.2-8.78-25.01-12.2c-0.5-0.22-0.73-0.81-0.52-1.31c3.15-7.29,1.44-17.38-0.07-26.29c-0.35-2.04-0.67-3.96-0.94-5.83
			c-0.45-3.15-2.2-5.72-5.49-8.09c-0.45-0.32-0.55-0.95-0.23-1.4c0.12-0.17,0.29-0.3,0.49-0.36c7.18-2.36,13.19-7.38,16.78-14.03
			c0.23-0.41,0.72-0.61,1.17-0.47c13.89,4.28,35.55,20.31,56.49,35.8c8.62,6.38,17.53,12.97,25.61,18.51
			c8.44,5.65,17.36,10.54,26.67,14.6c5.71,2.62,9.15,4.2,10.05,6l0,0c0.59,1.19,0.9,3.09-1.01,5.44
			C1219.62,841.61,1203,847.15,1184.71,847.15z M1097.09,811.72c7.6,3.38,15.69,7.5,24.23,11.86c15.13,7.72,30.78,15.71,43.31,19.06
			c25.85,6.91,52.77-1.48,58.23-8.17c1.49-1.83,0.95-2.92,0.77-3.28c-0.58-1.17-4.53-2.98-9.1-5.08
			c-9.41-4.11-18.44-9.05-26.97-14.77c-8.1-5.56-17.03-12.16-25.66-18.55c-20.43-15.11-41.54-30.73-55.13-35.26
			c-3.55,6.2-9.11,11.01-15.77,13.61c2.61,2.05,4.34,5.02,4.85,8.3c0.26,1.84,0.59,3.75,0.93,5.77
			C1098.29,794.04,1099.97,804,1097.09,811.72z"/>
		<path fill="#FFFFFF" d="M923.44,572.94c0,0-233.67,109.53-227.41,211.75s390.11,25.53,390.11,25.53l-12.47-38.59
			c0,0-136.67-49.53-268.11-15.1c94.93-31.29,213.09-1.58,252.59-50.04c59.07-72.19-18.92-142.94-18.92-142.94L923.44,572.94z"/>
		<path fill="#1A1A1A" d="M836,838.84c-12.2,0-23.65-0.33-34.33-0.98c-42.8-2.63-73.12-10.6-90.11-23.68
			c-10.26-7.9-15.83-17.8-16.54-29.42c-1.44-23.59,9.7-49.46,33.13-76.92c18.66-21.87,45.12-44.8,78.65-68.17
			c57.05-39.75,115.62-67.35,116.2-67.63c0.11-0.05,0.22-0.08,0.34-0.09l115.79-9.39c0.28-0.02,0.55,0.07,0.75,0.26
			c0.2,0.18,19.79,18.13,31.85,44.72c11.17,24.63,18.01,61.9-12.83,99.59c-22.74,27.9-70.46,30.17-125.7,32.79
			c-25.12,1.19-52.3,2.48-79.06,6.49c51.17-6.11,99.73-1.84,134.9,3.78c50.11,8,84.6,20.38,84.95,20.51
			c0.29,0.11,0.52,0.34,0.61,0.63l12.47,38.59c0.17,0.53-0.12,1.09-0.64,1.26c-0.04,0.01-0.07,0.02-0.11,0.03
			c-0.75,0.15-76.06,15.09-159.41,22.9C893.26,837.26,862.82,838.84,836,838.84z M923.7,573.93c-3.47,1.64-60.34,28.77-115.76,67.39
			c-33.39,23.27-59.72,46.09-78.26,67.82c-23.07,27.05-34.06,52.45-32.65,75.49c0.67,11.02,5.98,20.42,15.77,27.96
			c29.96,23.08,103.95,29.83,213.94,19.52c77.76-7.28,148.5-20.78,158.11-22.65l-11.98-37.05c-4.24-1.49-37.36-12.79-84.17-20.26
			c-46.06-7.35-115.17-12.39-182.89,5.34c-0.53,0.14-1.08-0.18-1.22-0.71c-0.13-0.51,0.15-1.04,0.66-1.2
			c41.07-13.54,87.19-15.73,127.88-17.66c54.77-2.6,102.07-4.85,124.25-32.06c24.22-29.61,28.46-62.39,12.58-97.44
			c-11.05-24.39-28.53-41.43-31.08-43.83L923.7,573.93z"/>
		<path fill="#1A1A1A" d="M902.12,583.52l-6.09,3.3c0,0,5.1,39.17,68.33,35.86s104.1-17.22,104.1-17.22l-6.09-13.22L902.12,583.52z"
			/>
		<path fill="#1A1A1A" d="M957.06,623.87c-28.27,0-43.43-9.15-51.3-17.18c-9.31-9.51-10.68-19.33-10.73-19.74
			c-0.05-0.41,0.15-0.81,0.52-1.01l6.09-3.3c0.16-0.09,0.35-0.13,0.53-0.12l160.26,8.72c0.37,0.02,0.7,0.24,0.85,0.58l6.09,13.22
			c0.23,0.5,0.01,1.09-0.49,1.33c-0.03,0.01-0.06,0.03-0.1,0.04c-0.41,0.14-41.73,13.99-104.37,17.27
			C961.87,623.81,959.42,623.87,957.06,623.87z M897.14,587.35c1.63,6.84,5.14,13.09,10.15,18.03c8.24,8.36,24.82,17.99,57.02,16.29
			c56.81-2.98,95.96-14.67,102.78-16.82l-5.36-11.65l-159.37-8.67L897.14,587.35z"/>
		<path fill="#FFFFFF" d="M623.54,266.77c2.31-0.14,4.68-0.37,7.09-0.62c-5.75-18.23-9.83-33.63-12.84-39.87
			c-9.04-18.78-43.39-52.16-43.39-52.16s-3.91,9.04,2.35,15.3s15.3,27.12,15.3,27.12s-38.25,6.26-31.99,29.9s25.73,12.52,27.82,1.39
			c0,0,3.26,16.35,9.3,38.83C602.96,276.6,610.59,268.13,623.54,266.77z"/>
		<path fill="#1A1A1A" d="M597.19,287.67c-0.04,0-0.09,0-0.13-0.01c-0.4-0.05-0.73-0.34-0.84-0.73
			c-4.35-16.16-7.28-29.28-8.57-35.31c-2.61,5.33-8.41,9.59-14.02,9.8c-3.94,0.14-11.06-1.58-14.53-14.71
			c-1.51-5.06-0.72-10.54,2.16-14.97c7-10.8,24.47-14.97,29.37-15.94c-1.99-4.44-9.36-20.44-14.58-25.66
			c-6.66-6.66-2.73-16.01-2.56-16.4c0.22-0.51,0.81-0.74,1.31-0.52c0.11,0.05,0.21,0.12,0.3,0.2c1.41,1.37,34.58,33.72,43.59,52.44
			c2.06,4.28,4.58,12.67,7.78,23.3c1.52,5.05,3.24,10.77,5.11,16.71c0.17,0.53-0.13,1.09-0.65,1.25c-0.06,0.02-0.13,0.03-0.2,0.04
			c-2.15,0.22-4.68,0.46-7.11,0.62c-10.64,1.13-18.53,7.11-25.57,19.4C597.88,287.48,597.55,287.67,597.19,287.67z M587.88,246.84
			c0.48,0,0.89,0.34,0.98,0.8c0.03,0.16,3.09,15.45,8.67,36.46c4.99-8.17,12.48-16.92,25.9-18.33l0.04,0
			c1.96-0.12,3.99-0.31,5.83-0.49c-1.73-5.53-3.33-10.84-4.75-15.56c-3.17-10.54-5.68-18.87-7.67-23.01
			c-7.94-16.49-36.07-44.83-42.06-50.76c-0.76,2.65-1.71,8.43,2.63,12.77c6.32,6.32,15.14,26.57,15.51,27.43
			c0.22,0.51-0.01,1.1-0.52,1.32c-0.08,0.03-0.15,0.06-0.24,0.07c-0.22,0.04-21.76,3.69-29.28,15.3c-2.57,3.96-3.26,8.84-1.91,13.36
			c2.31,8.74,6.76,13.42,12.53,13.23c5.87-0.22,12.23-5.82,13.34-11.77C586.99,247.19,587.4,246.84,587.88,246.84L587.88,246.84z"/>
		<path fill="#FFFFFF" d="M1142.13,576.22c3.82,15.34,2.9,25.47,2.9,25.47s-1.39,9.13-8.35,11.13s-10.78,16.83-9.74,25.53
			c0.63,5.21,0.58,15.89,9.91,17.76c6.23,1.25,21.8-4.07,25.56-7.82c5.02-5.02,7.35-40.47,7.01-77.25
			c-2.92,2.04-6.06,3.74-9.36,5.07C1153.99,578.53,1148.64,579.42,1142.13,576.22z"/>
		<path fill="#1A1A1A" d="M1138.96,657.29c-0.77,0.01-1.54-0.06-2.3-0.2c-9.08-1.82-9.98-11.22-10.52-16.84
			c-0.06-0.64-0.12-1.24-0.18-1.78c-1.08-8.97,2.93-24.44,10.45-26.61c6.25-1.8,7.62-10.23,7.63-10.32c0-0.04,0.84-10.11-2.88-25.08
			c-0.13-0.54,0.19-1.08,0.73-1.21c0.23-0.06,0.47-0.03,0.68,0.07c6.23,3.07,11.35,2.16,17.12-0.15c3.23-1.3,6.31-2.97,9.17-4.96
			c0.45-0.32,1.08-0.2,1.39,0.25c0.11,0.17,0.18,0.36,0.18,0.56c0.31,32.29-1.42,72.09-7.3,77.97
			C1159.5,652.62,1146.3,657.29,1138.96,657.29z M1143.57,577.95c3.27,14.21,2.49,23.43,2.46,23.84c-0.07,0.46-1.58,9.84-9.06,12
			c-6.38,1.84-10.02,16.11-9.02,24.45c0.07,0.55,0.13,1.17,0.19,1.83c0.52,5.39,1.3,13.54,8.92,15.07
			c5.73,1.15,21.07-3.96,24.65-7.55c4.2-4.2,7.01-35.47,6.73-74.69c-2.53,1.63-5.21,3.01-8.01,4.14
			C1154.75,579.3,1149.62,580.31,1143.57,577.95z"/>
		<path fill="#FFFFFF" d="M1150.73,475.65c-0.56-0.85-1.82-2.63-3.61-5.11c-0.23-0.31-0.45-0.63-0.68-0.94
			c-16.11-22.27-68.96-93.11-68.96-93.11s-61.89-77.19-103.62-72.32l-8.35,50.07c0,0,142.44,149.78,147.97,156.59
			c11.15,13.73,21.31,48.57,27.45,73.26c6.51,3.2,15.04,3.6,21.12,1.17c3.3-1.33,6.44-3.03,9.36-5.07
			c-0.3-32.01-2.64-65.03-7.01-79.91C1162.66,494.33,1157.68,485.73,1150.73,475.65z"/>
		<path fill="#1A1A1A" d="M1153.2,587.82c-4.39,0.02-8.74-0.95-12.7-2.84c-0.26-0.13-0.46-0.37-0.53-0.66
			c-6.44-25.86-16.39-59.49-27.26-72.87c-5.44-6.7-146.5-155.03-147.92-156.53c-0.22-0.23-0.31-0.54-0.26-0.85l8.35-50.07
			c0.07-0.44,0.43-0.78,0.87-0.83c41.79-4.88,101.98,69.52,104.52,72.69c0.55,0.74,53.06,71.13,68.99,93.15l0.68,0.95
			c1.86,2.58,3.08,4.3,3.62,5.14c7.51,10.87,12.16,19.25,13.81,24.89c4.79,16.32,6.78,52.12,7.05,80.18c0,0.33-0.16,0.64-0.43,0.83
			c-2.98,2.08-6.19,3.82-9.56,5.17C1159.48,587.3,1156.35,587.86,1153.2,587.82z M1141.79,583.38c6.15,2.87,14.08,3.26,19.89,0.94
			c3.07-1.24,6-2.8,8.73-4.66c-0.36-35.4-3.02-65.68-6.96-79.11c-1.6-5.44-6.15-13.63-13.55-24.33l-0.01-0.02
			c-0.53-0.8-1.73-2.51-3.58-5.07l-0.68-0.94c-15.93-22.01-68.42-92.39-68.95-93.1c-0.59-0.74-61.25-75.75-101.96-72l-8.14,48.83
			c9.5,9.99,142.27,149.63,147.68,156.28C1125.29,523.78,1135.3,557.39,1141.79,583.38z"/>
		<path fill="#FFFFFF" d="M866.31,178.69c0,0-26.75,82.97,16.02,101.74c8.06,0.53,13.82-2.99,17.18-4.85
			c15.07,11.73,9.67,41.04,9.92,41.84c5.27,16.61,65.64,3.61,61.2-10.43c0,0-3.55-17.84-9.27-39.39
			c-3.43-12.91-0.4-28.78-5.09-41.31c-3.16-8.46-13.77-14.51-17.28-20.48C921.6,176.25,881.96,158.87,866.31,178.69z"/>
		<path fill="#1A1A1A" d="M928.73,326.19c-9.93,0-18.32-2.35-20.26-8.47c-0.09-0.66-0.07-1.33,0.08-1.98
			c1.99-19.16-1.08-32.26-9.15-38.97c-3.46,1.94-9.24,5.17-17.14,4.65c-0.12-0.01-0.23-0.04-0.34-0.08
			c-17.9-7.86-26.43-28.22-24.64-58.89c1.05-14.95,3.76-29.73,8.08-44.08c0.04-0.11,0.09-0.22,0.17-0.31
			c5.04-6.38,12.73-9.42,22.24-8.76c18.66,1.28,40.56,16.42,52.08,36c1.37,2.33,3.98,4.77,6.75,7.34
			c4.06,3.79,8.67,8.09,10.61,13.29c2.61,6.97,2.88,14.98,3.14,22.73c0.22,6.34,0.44,12.9,1.97,18.68
			c5.51,20.76,9.06,38.31,9.27,39.4c1.71,5.58-5.03,11.37-18.04,15.49C945.52,324.76,937.16,326.09,928.73,326.19z M910.42,317.24
			c3,8.82,24.76,8.72,42.53,3.09c11.51-3.65,18.07-8.77,16.72-13.04c-0.01-0.04-0.02-0.07-0.03-0.11
			c-0.04-0.18-3.61-18.06-9.26-39.33c-1.59-5.99-1.82-12.67-2.04-19.12c-0.26-7.58-0.53-15.43-3.02-22.09
			c-1.78-4.76-6.2-8.89-10.11-12.53c-2.87-2.68-5.59-5.21-7.1-7.79c-11.21-19.06-32.45-33.78-50.49-35.02
			c-8.75-0.6-15.81,2.12-20.42,7.87c-1.31,4.22-24.95,82.35,15.36,100.28c7.23,0.43,12.43-2.49,15.88-4.42l0.57-0.32
			c0.35-0.2,0.78-0.16,1.1,0.09c9.03,7.02,12.53,20.88,10.42,41.16C910.49,316.48,910.43,317.02,910.42,317.24L910.42,317.24z"/>
		<path fill="#FFFFFF" d="M1043.15,409.32c12.31,71.78,26.11,174.53,25.31,182.91c-1.39,14.6-54.27,26.96-119.64,23.48
			s-46.6-54.94-81.37-118.22c-13.62-24.79-11.24-66.99-28.82-69.19c-17.92-2.24-53.94-3.13-53.94-3.13s-70.24,2.78-118.23-10.43
			c-32.34-8.9-56.78-81.6-69.28-128.07c5.77-10.07,13.4-18.54,26.35-19.9c2.31-0.14,4.68-0.37,7.09-0.62
			c11.54,36.59,29.78,84.6,59.49,92.95c29.5,8.3,82.09-6.03,114.2-16.64l27.38-9.83l58.01-20.82c0,0,31.02-19.69,73.73-10.44
			l25.97,4.26L1043.15,409.32z"/>
		<path fill="#1A1A1A" d="M970.61,617.29c-7.14,0-14.44-0.19-21.84-0.58c-43.87-2.33-50.62-26.49-59.97-59.93
			c-4.9-17.53-10.45-37.39-22.22-58.8c-5.62-10.23-8.6-23.6-11.22-35.39c-3.83-17.21-7.14-32.08-16.85-33.29
			c-17.67-2.21-53.48-3.12-53.84-3.12c-0.64,0.03-70.88,2.64-118.47-10.47c-33.2-9.14-58.1-84.6-69.98-128.77
			c-0.07-0.26-0.03-0.53,0.1-0.76c4.98-8.69,12.56-18.87,27.11-20.4c2.44-0.15,4.95-0.4,7.09-0.62c0.47-0.05,0.91,0.24,1.06,0.69
			c11.25,35.68,29.59,84.07,58.8,92.29c29.74,8.36,83.95-6.83,113.62-16.62l85.27-30.61c2-1.22,32.96-19.48,74.38-10.51l25.92,4.25
			c0.54,0.09,0.91,0.6,0.82,1.15c-0.09,0.54-0.6,0.91-1.15,0.82l-25.97-4.26c-41.87-9.07-72.73,10.1-73.03,10.29
			c-0.06,0.04-0.13,0.07-0.2,0.1l-85.39,30.65c-29.91,9.88-84.56,25.17-114.81,16.66c-29.93-8.42-48.51-56.79-59.92-92.84
			c-1.97,0.2-4.18,0.4-6.32,0.54c-10.51,1.11-18.35,6.99-25.34,19.04c11.81,43.81,36.33,118.11,68.47,126.96
			c47.28,13.02,117.22,10.42,117.92,10.4c0.42,0.01,36.34,0.92,54.11,3.14c11.11,1.39,14.56,16.89,18.55,34.84
			c2.72,12.23,5.53,24.88,11.02,34.86c11.88,21.61,17.46,41.6,22.39,59.23c9.46,33.85,15.72,56.22,58.15,58.47
			c30.69,1.64,60.36-0.12,83.56-4.94c21.31-4.43,34.41-11.02,35.04-17.64c0.82-8.56-13.19-111.98-25.3-182.64
			c-0.09-0.54,0.27-1.06,0.82-1.15s1.06,0.27,1.15,0.82c12.13,70.78,26.15,174.51,25.32,183.17
			C1068.09,606.73,1024.03,617.29,970.61,617.29z"/>
		<path fill="#1A1A1A" d="M897.55,203.26c0,0,6.76,21.2,11.63,24.68c6.95-9.04,16.69-15.99,20.86-11.13s5.56,27.12,5.56,27.12
			s18.56,16.79,35.25,7.75c16-30.6,15.22-88.83-34.76-103.43c-14.52-4.24-33.46-11.88-56.76-7.84
			c-14.21,2.46-39.83,17.29-43.32,23.9c-10.46,19.84,18.3,41.82,18.3,41.82S871.99,226.03,897.55,203.26z"/>
		<path fill="#1A1A1A" d="M960.1,255.38c-13.13,0-24.56-10.16-25.17-10.71c-0.19-0.18-0.31-0.42-0.33-0.68
			c-0.38-6.1-2.08-22.75-5.32-26.53c-0.74-0.87-1.85-1.34-2.99-1.25c-4.17,0.11-10.73,5.07-16.33,12.34
			c-0.33,0.43-0.94,0.52-1.37,0.2c-4.41-3.15-9.83-18.63-11.53-23.75c-8.48,7.21-17.01,10.62-25.37,10.13
			c-6.83-0.45-13.25-3.39-18.05-8.27c-1.97-1.52-29.06-22.98-18.5-43.03c3.61-6.85,29.23-21.85,44.03-24.42
			c20.41-3.54,37.45,1.76,51.14,6.02c2.1,0.65,4.12,1.28,6.07,1.85c18.23,5.33,31.66,17.06,38.84,33.92
			c10.42,24.48,5.76,53.27-3.48,70.94c-0.09,0.18-0.24,0.32-0.41,0.42C967.89,254.43,964.02,255.4,960.1,255.38z M936.58,243.45
			c2.41,2.04,18.86,15.18,33.54,7.49c8.64-16.73,13.32-45.33,3.27-68.95c-6.94-16.3-19.92-27.63-37.56-32.79
			c-1.95-0.57-3.99-1.2-6.1-1.86c-13.49-4.19-30.27-9.41-50.21-5.96c-14.06,2.44-39.25,17-42.6,23.38
			c-9.94,18.86,17.74,40.35,18.02,40.56c0.05,0.04,0.1,0.08,0.14,0.13c0.7,0.78,17.34,18.87,41.81-2.95
			c0.41-0.37,1.04-0.33,1.41,0.08c0.09,0.1,0.16,0.23,0.21,0.36c1.74,5.45,6.81,19.59,10.55,23.53c4.61-5.75,11.62-12.13,17.2-12.27
			c1.74-0.1,3.42,0.62,4.56,1.95C934.87,220.9,936.36,240.24,936.58,243.45L936.58,243.45z"/>
		<path fill="#FFFFFF" d="M1104.84,755.41c0,0,88.67,87.3,119.39,77.44c4.19-3.4-12.77-9.91-32.01-23.67
			C1157.82,784.56,1108.43,749.18,1104.84,755.41z"/>
		<path fill="#1A1A1A" d="M1218.88,834.62c-34.59,0-111.31-75.11-114.74-78.5c-0.32-0.32-0.39-0.82-0.16-1.21
			c0.36-0.6,0.96-1.01,1.65-1.13c7.75-1.69,43.84,23.58,86.71,54.25l0.48,0.34c7.31,5.23,14.3,9.41,19.92,12.78
			c8.99,5.38,12.97,7.86,13.15,10.38c0.05,0.83-0.33,1.62-1.01,2.11c-0.1,0.08-0.21,0.14-0.32,0.18
			C1222.71,834.37,1220.8,834.64,1218.88,834.62z M1106.55,755.67c9.85,9.53,88.94,84.87,117.19,76.29c0.16-0.16,0.15-0.25,0.15-0.3
			c-0.11-1.58-5.97-5.09-12.18-8.8c-5.65-3.38-12.68-7.59-20.05-12.87l-0.48-0.34c-30.18-21.6-75.43-53.98-84.53-53.98
			C1106.61,755.67,1106.58,755.67,1106.55,755.67z"/>
		<polygon fill="#FFFFFF" stroke="#000000" stroke-miterlimit="10" points="537.27,82.18 218.12,82.18 211.87,54.49 531.01,54.49 		
			"/>
		<path fill="#FFFFFF" stroke="#000000" stroke-width="2" stroke-miterlimit="10" d="M537.27,83.18H218.12
			c-0.47,0-0.87-0.32-0.98-0.78l-6.26-27.68c-0.12-0.54,0.22-1.07,0.75-1.2c0.07-0.02,0.15-0.02,0.22-0.02h319.14
			c0.47,0,0.87,0.32,0.98,0.78l6.26,27.68c0.12,0.54-0.22,1.07-0.75,1.2C537.42,83.17,537.34,83.18,537.27,83.18z M218.92,81.18
			h317.09l-5.81-25.68H213.12L218.92,81.18z"/>
		<polygon fill="#FFFFFF" stroke="#000000" stroke-width="2" stroke-miterlimit="10" points="555.94,174.13 236.8,174.13 
			230.54,146.44 549.68,146.44 		"/>
		<path fill="#FFFFFF" stroke="#000000" stroke-width="2" stroke-miterlimit="10" d="M555.94,175.13H236.8
			c-0.47,0-0.87-0.32-0.98-0.78l-6.26-27.68c-0.12-0.54,0.22-1.07,0.75-1.2c0.07-0.02,0.15-0.02,0.22-0.02h319.14
			c0.47,0,0.87,0.32,0.98,0.78l6.26,27.68c0.12,0.54-0.22,1.07-0.75,1.2C556.09,175.12,556.01,175.13,555.94,175.13z M237.6,173.13
			h317.09l-5.81-25.68H231.79L237.6,173.13z"/>
		<polygon fill="#FFFFFF" stroke="#000000" stroke-width="2" stroke-miterlimit="10" points="572.38,43.69 622.79,78.04 
			662.74,4.85 645.94,0 617.56,56.72 581.5,28.53 		"/>
		<polygon fill="#FFFFFF" points="589.56,146 639.97,180.36 679.92,107.17 663.12,102.31 634.74,159.04 598.67,130.84 		"/>
		<path fill="#1A1A1A" d="M639.97,181.36c-0.2,0-0.4-0.06-0.56-0.17l-50.41-34.35c-0.44-0.3-0.57-0.89-0.29-1.34l9.12-15.16
			c0.28-0.47,0.9-0.63,1.37-0.34c0.04,0.02,0.07,0.04,0.1,0.07l35.1,27.44l27.84-55.63c0.21-0.43,0.71-0.65,1.17-0.51l16.8,4.85
			c0.53,0.15,0.84,0.71,0.68,1.24c-0.02,0.07-0.05,0.14-0.08,0.2l-39.95,73.19C640.67,181.16,640.34,181.36,639.97,181.36
			L639.97,181.36z M590.9,145.71l48.72,33.2l38.82-71.13l-14.8-4.28l-28.01,55.98c-0.25,0.49-0.85,0.69-1.34,0.45
			c-0.06-0.03-0.12-0.07-0.17-0.11l-35.17-27.5L590.9,145.71z"/>
		<polygon fill="#1A1A1A" points="906.92,265.49 899.51,275.58 905.36,280.56 		"/>
		<path fill="#1A1A1A" d="M905.36,281.56c-0.24,0-0.47-0.08-0.65-0.24l-5.85-4.98c-0.4-0.34-0.47-0.93-0.16-1.35l7.41-10.08
			c0.33-0.44,0.95-0.54,1.4-0.21c0.29,0.21,0.44,0.56,0.4,0.91l-1.56,15.06C906.3,281.17,905.87,281.56,905.36,281.56L905.36,281.56
			z M900.86,275.42l3.69,3.14l0.99-9.51L900.86,275.42z"/>
	</g>
</g>
</svg>
