<?xml version="1.0" encoding="UTF-8" standalone="no"?>
<!DOCTYPE svg PUBLIC "-//W3C//DTD SVG 1.1//EN" "http://www.w3.org/Graphics/SVG/1.1/DTD/svg11.dtd">
<svg width="100%" height="100%" viewBox="0 0 24 24" version="1.1" xmlns="http://www.w3.org/2000/svg" xmlns:xlink="http://www.w3.org/1999/xlink" xml:space="preserve" xmlns:serif="http://www.serif.com/" style="fill-rule:evenodd;clip-rule:evenodd;stroke-linejoin:round;stroke-miterlimit:2;">
    <g transform="matrix(0.666667,0,0,0.666667,4,4)">
        <g transform="matrix(1.5,0,0,1.5,-6,-6)">
            <rect x="0" y="0" width="24" height="24" style="fill:rgb(64,64,64);"/>
        </g>
        <rect x="0" y="0" width="24" height="24" style="fill:none;"/>
        <circle cx="12" cy="3.5" r="0.75" style="fill:none;"/>
        <circle cx="12" cy="3.5" r="0.75" style="fill:none;"/>
        <path d="M5,5L5,19L19,19L19,5L5,5Z" style="fill:none;fill-rule:nonzero;"/>
        <g>
            <g transform="matrix(1.94986,0,0,1.94986,-11.3983,-11.3983)">
                <path d="M11,14.17L8.83,12L11,9.83L9.59,8.41L6,12L9.59,15.59L11,14.17Z" style="fill:white;fill-rule:nonzero;"/>
            </g>
            <g transform="matrix(1.94986,0,0,1.94986,-11.3983,-11.3983)">
                <path d="M14.41,15.59L18,12L14.41,8.41L13,9.83L15.17,12L13,14.17L14.41,15.59Z" style="fill:white;fill-rule:nonzero;"/>
            </g>
        </g>
    </g>
</svg>
