<?xml version="1.0" encoding="utf-8"?>
<!-- Generator: Adobe Illustrator 26.0.1, SVG Export Plug-In . SVG Version: 6.00 Build 0)  -->
<svg version="1.2" baseProfile="tiny" id="Layer_1" xmlns="http://www.w3.org/2000/svg" xmlns:xlink="http://www.w3.org/1999/xlink"
	 x="0px" y="0px" viewBox="0 0 122.49 35.79" overflow="visible" xml:space="preserve">
<g>
	<path d="M30.53,26.28h-6.84v-10.4c0-0.91-0.19-1.57-0.56-1.98c-0.37-0.41-0.82-0.61-1.35-0.61s-1.1,0.25-1.73,0.74
		c-0.62,0.49-1.08,1.12-1.37,1.9v10.36h-6.84v-10.4c0-0.91-0.19-1.57-0.56-1.98c-0.37-0.41-0.82-0.61-1.35-0.61
		c-0.53,0-1.1,0.24-1.73,0.72c-0.62,0.48-1.08,1.09-1.37,1.84v10.44H0V7.6h6.16v2.83c0.67-1.01,1.6-1.79,2.77-2.32
		c1.18-0.53,2.57-0.8,4.18-0.8c1.56,0,2.74,0.33,3.53,0.99c0.79,0.66,1.32,1.4,1.58,2.23c0.67-1.02,1.6-1.81,2.77-2.37
		c1.18-0.57,2.5-0.85,3.96-0.85c1.25,0,2.24,0.22,2.99,0.67c0.74,0.45,1.3,1.03,1.67,1.73c0.37,0.71,0.62,1.45,0.74,2.21
		c0.12,0.77,0.18,1.47,0.18,2.11V26.28z"/>
	<path d="M33.84,5.76V0h6.84v5.76H33.84z M33.84,26.28V7.34h6.84v18.94H33.84z"/>
	<path d="M63.18,26.28h-6.84v-10.4c0-0.91-0.21-1.57-0.63-1.98c-0.42-0.41-0.91-0.61-1.46-0.61c-0.38,0-0.79,0.11-1.22,0.32
		c-0.43,0.22-0.83,0.52-1.19,0.9c-0.36,0.39-0.65,0.83-0.86,1.33v10.44h-6.84V7.6h6.16v2.83c0.46-0.68,1.03-1.26,1.73-1.72
		c0.7-0.46,1.5-0.81,2.41-1.04c0.91-0.24,1.91-0.35,2.99-0.35c1.3,0,2.33,0.22,3.1,0.67s1.34,1.03,1.73,1.73
		c0.38,0.71,0.64,1.45,0.76,2.21s0.18,1.47,0.18,2.11V26.28z"/>
	<path d="M66.49,5.76V0h6.84v5.76H66.49z M66.49,26.28V7.34h6.84v18.94H66.49z"/>
	<path d="M107.31,26.28h-6.84v-10.4c0-0.91-0.19-1.57-0.56-1.98c-0.37-0.41-0.82-0.61-1.35-0.61s-1.1,0.25-1.73,0.74
		c-0.62,0.49-1.08,1.12-1.37,1.9v10.36h-6.84v-10.4c0-0.91-0.19-1.57-0.56-1.98c-0.37-0.41-0.82-0.61-1.35-0.61
		c-0.53,0-1.1,0.24-1.73,0.72c-0.62,0.48-1.08,1.09-1.37,1.84v10.44h-6.84V7.6h6.16v2.83c0.67-1.01,1.6-1.79,2.77-2.32
		c1.18-0.53,2.57-0.8,4.18-0.8c1.56,0,2.74,0.33,3.53,0.99c0.79,0.66,1.32,1.4,1.58,2.23c0.67-1.02,1.6-1.81,2.77-2.37
		c1.18-0.57,2.5-0.85,3.96-0.85c1.25,0,2.24,0.22,2.99,0.67c0.74,0.45,1.3,1.03,1.67,1.73c0.37,0.71,0.62,1.45,0.74,2.21
		c0.12,0.77,0.18,1.47,0.18,2.11V26.28z"/>
	<path d="M110.48,0h6.84v18.76c0,0.7,0.15,1.23,0.45,1.6c0.3,0.37,0.74,0.56,1.31,0.56c0.29,0,0.6-0.05,0.94-0.14
		c0.34-0.1,0.65-0.23,0.94-0.4l0.86,5.04c-0.82,0.38-1.73,0.68-2.75,0.9c-1.02,0.22-1.99,0.32-2.9,0.32c-1.82,0-3.23-0.47-4.21-1.42
		c-0.98-0.95-1.48-2.3-1.48-4.05V0z"/>
</g>
<g>
</g>
<g>
</g>
<g>
</g>
<g>
</g>
<g>
</g>
<g>
</g>
</svg>
