<?xml version="1.0" encoding="utf-8"?>
<!-- Generator: Adobe Illustrator 26.0.1, SVG Export Plug-In . SVG Version: 6.00 Build 0)  -->
<svg version="1.2" baseProfile="tiny" id="Layer_1" xmlns="http://www.w3.org/2000/svg" xmlns:xlink="http://www.w3.org/1999/xlink"
	 x="0px" y="0px" viewBox="0 0 133.65 31.23" overflow="visible" xml:space="preserve">
<g>
	<path d="M26.36,31.23V19.96c0-0.58-0.04-1.14-0.12-1.68c-0.08-0.54-0.23-1-0.46-1.39c-0.22-0.39-0.52-0.7-0.89-0.93
		c-0.37-0.23-0.86-0.35-1.47-0.35c-0.58,0-1.08,0.12-1.51,0.37c-0.43,0.25-0.79,0.58-1.08,0.99c-0.29,0.41-0.5,0.89-0.64,1.43
		c-0.14,0.54-0.21,1.1-0.21,1.68v11.15h-6.8V19.46c0-1.19-0.23-2.13-0.7-2.82c-0.47-0.69-1.22-1.04-2.24-1.04
		c-1.08,0-1.91,0.43-2.51,1.28c-0.59,0.86-0.89,1.91-0.89,3.15v11.19H0V10.59h6.59v2.86h0.08c0.25-0.44,0.56-0.87,0.93-1.28
		c0.37-0.41,0.82-0.78,1.35-1.1c0.52-0.32,1.11-0.57,1.76-0.77c0.65-0.19,1.36-0.29,2.13-0.29c1.49,0,2.76,0.3,3.79,0.91
		c1.04,0.61,1.84,1.48,2.42,2.61c0.69-1.08,1.57-1.93,2.65-2.57c1.08-0.64,2.39-0.95,3.94-0.95c1.41,0,2.59,0.26,3.54,0.77
		c0.95,0.51,1.72,1.17,2.3,1.99c0.58,0.82,1,1.73,1.26,2.74c0.26,1.01,0.39,2,0.39,2.96v12.76H26.36z"/>
	<path d="M45.67,4c0,0.52-0.1,1.02-0.31,1.47c-0.21,0.46-0.48,0.85-0.83,1.18c-0.35,0.33-0.76,0.59-1.24,0.79
		c-0.48,0.19-0.99,0.29-1.51,0.29c-1.11,0-2.03-0.37-2.78-1.1C38.25,5.9,37.88,5.02,37.88,4c0-0.5,0.1-0.97,0.29-1.43
		c0.19-0.46,0.47-0.85,0.83-1.18c0.36-0.33,0.77-0.6,1.24-0.81c0.47-0.21,0.98-0.31,1.53-0.31c0.52,0,1.03,0.1,1.51,0.29
		c0.48,0.19,0.9,0.46,1.24,0.79c0.35,0.33,0.62,0.73,0.83,1.18C45.56,2.99,45.67,3.48,45.67,4z M38.38,31.23V10.59h6.8v20.64H38.38z
		"/>
	<path d="M64.11,31.23V19.96c0-0.58-0.05-1.13-0.15-1.66c-0.1-0.52-0.26-0.99-0.48-1.39c-0.22-0.4-0.53-0.72-0.93-0.95
		c-0.4-0.23-0.91-0.35-1.51-0.35c-0.61,0-1.14,0.12-1.6,0.35c-0.46,0.24-0.84,0.56-1.14,0.97c-0.3,0.41-0.53,0.89-0.68,1.43
		c-0.15,0.54-0.23,1.1-0.23,1.68v11.19h-6.84V10.59h6.59v2.86h0.08c0.25-0.44,0.57-0.88,0.97-1.31c0.4-0.43,0.87-0.79,1.41-1.1
		c0.54-0.3,1.12-0.55,1.76-0.75c0.64-0.19,1.31-0.29,2.03-0.29c1.38,0,2.56,0.25,3.52,0.75c0.97,0.5,1.75,1.14,2.34,1.93
		c0.59,0.79,1.02,1.69,1.28,2.71c0.26,1.02,0.39,2.04,0.39,3.07v12.76H64.11z"/>
	<path d="M83.46,4c0,0.52-0.1,1.02-0.31,1.47c-0.21,0.46-0.48,0.85-0.83,1.18c-0.35,0.33-0.76,0.59-1.24,0.79
		c-0.48,0.19-0.99,0.29-1.51,0.29c-1.11,0-2.03-0.37-2.78-1.1C76.04,5.9,75.67,5.02,75.67,4c0-0.5,0.1-0.97,0.29-1.43
		c0.19-0.46,0.47-0.85,0.83-1.18c0.36-0.33,0.77-0.6,1.24-0.81c0.47-0.21,0.98-0.31,1.53-0.31c0.52,0,1.03,0.1,1.51,0.29
		c0.48,0.19,0.9,0.46,1.24,0.79c0.35,0.33,0.62,0.73,0.83,1.18C83.36,2.99,83.46,3.48,83.46,4z M76.17,31.23V10.59h6.8v20.64H76.17z
		"/>
	<path d="M114.71,31.23V19.96c0-0.58-0.04-1.14-0.12-1.68c-0.08-0.54-0.23-1-0.46-1.39c-0.22-0.39-0.52-0.7-0.89-0.93
		c-0.37-0.23-0.86-0.35-1.47-0.35c-0.58,0-1.08,0.12-1.51,0.37c-0.43,0.25-0.79,0.58-1.08,0.99c-0.29,0.41-0.5,0.89-0.64,1.43
		c-0.14,0.54-0.21,1.1-0.21,1.68v11.15h-6.8V19.46c0-1.19-0.23-2.13-0.7-2.82c-0.47-0.69-1.22-1.04-2.24-1.04
		c-1.08,0-1.91,0.43-2.51,1.28c-0.59,0.86-0.89,1.91-0.89,3.15v11.19h-6.84V10.59h6.59v2.86h0.08c0.25-0.44,0.56-0.87,0.93-1.28
		c0.37-0.41,0.82-0.78,1.35-1.1c0.52-0.32,1.11-0.57,1.76-0.77c0.65-0.19,1.36-0.29,2.13-0.29c1.49,0,2.76,0.3,3.79,0.91
		c1.04,0.61,1.84,1.48,2.42,2.61c0.69-1.08,1.57-1.93,2.65-2.57c1.08-0.64,2.39-0.95,3.94-0.95c1.41,0,2.59,0.26,3.54,0.77
		c0.95,0.51,1.72,1.17,2.3,1.99c0.58,0.82,1,1.73,1.26,2.74c0.26,1.01,0.39,2,0.39,2.96v12.76H114.71z"/>
	<path d="M126.73,31.23V-0.1h6.92v31.33H126.73z"/>
</g>
<g>
</g>
<g>
</g>
<g>
</g>
<g>
</g>
<g>
</g>
<g>
</g>
</svg>
